<?xml version="1.0" encoding="utf-8"?>
<!-- Generator: Adobe Illustrator 18.0.0, SVG Export Plug-In . SVG Version: 6.00 Build 0)  -->
<!DOCTYPE svg PUBLIC "-//W3C//DTD SVG 1.1//EN" "http://www.w3.org/Graphics/SVG/1.1/DTD/svg11.dtd">
<svg version="1.1" id="Layer_1" xmlns="http://www.w3.org/2000/svg" xmlns:xlink="http://www.w3.org/1999/xlink" x="0px" y="0px"
	 viewBox="0 639.1 960 568.5" enable-background="new 0 639.1 960 568.5" xml:space="preserve">
<rect x="13.9" y="652.8" fill="#DCDCDC" stroke="#C3C3C3" stroke-miterlimit="10" width="932.2" height="542.1"/>
<g>
	<path fill="#E7E7E7" d="M590.1,403.8c-8.8-0.6-17.3-1.4-25.7-2c-1.6-0.2-3.5,0.3-4.9,1.1c-29,17.7-60.6,25.7-94.4,24.5
		c-27.6-1.1-53.5-8.6-77.4-22.9c-3.8-2.2-7.1-3-11.5-2.5c-39.1,4.1-76.6-2-112.4-18.5c-2-0.9-3-2.2-2.7-4.6
		c3.8-40.3,17.7-76.9,42.1-109.4c0.9-1.3,1.6-3.1,1.6-4.7c-1.1-29.4,6-56.8,19.5-82.7c10.5-20.3,24.8-37.7,42.7-51.7
		c8.2-6.4,17.3-11.6,25.7-17.4c1.1-0.8,2.4-1.9,2.8-3.1c14.3-33.4,35.6-61.5,64.2-84.1c3.1-2.5,6.4-4.7,9.6-7.1
		c1.9-1.4,3.5-1.4,5.3-0.2c28.4,19.9,50.6,45.4,66.6,76.1c1.3,2.4,2.7,4.6,3.5,7.1c2.2,7.7,7.7,12.1,14.4,16.2
		c35.6,21.7,59.7,53.1,72.5,92.6c5.7,17.1,8.2,34.9,7.5,53.1c-0.2,2.8,0.6,5.2,2.4,7.5c21.7,29.2,35.2,61.7,40,97.8
		c0.5,3.5,0.8,6.9,1.3,10.4c0.3,2.4-0.5,3.6-2.5,4.7c-19.8,9.1-40.5,15.4-62,18.1C608.6,402.7,599.2,403,590.1,403.8z M534,104.4
		c-0.5-1.1-0.8-2-1.3-3C518.6,73.5,499,50.1,474,31.1c-1.7-1.4-3-1.1-4.6,0.2c-54.2,42.7-80.9,98.6-80.1,167.5
		c0,0.9,0.2,1.9,0.3,3.1c6.6-2.4,13-4.6,19.3-6.9c0.6-0.3,1.1-1.9,1.3-3c0.5-7.2,0.5-14.6,1.4-21.8c4.6-35.8,18.4-67.7,41.8-95
		c5.7-6.6,12.1-12.2,18.4-18.4c12.4,11,23.1,23.2,32,37.1c0.8,1.3,1.7,2.7,3,3C515.8,99.4,524.7,101.9,534,104.4z M305.9,283.7
		c-1.4,2.2-2.7,3.9-3.8,5.7c-16.3,25.7-26.2,53.7-30,83.8c-0.3,2.4,0.6,3,2.4,3.8c18.5,7.8,37.8,13,57.9,14.9
		c37.4,3.6,73.2-2.4,107.2-18.5c7.7-3.8,15.2-8.2,22.9-12.4c-5.5-4.7-10.4-9.1-15.5-13.2c-0.8-0.6-2.8-0.6-3.8,0
		c-24.6,14.1-51.2,22.1-79.6,23.9c-22.5,1.4-44.4-1.6-65.9-8.3c-2.2-0.6-2.5-1.7-2-3.8c3-13.2,6.8-26.2,13-38.1
		c3.1-6,4.4-11.5,1.4-17.7c-0.8-1.6-0.8-3.3-1.3-5C308.1,293.7,307,289,305.9,283.7z M563.5,217.6c-1.3,7.1-2.2,13-3.5,18.8
		c-0.6,2.7-0.2,3.9,2.2,5.3c45.1,27,73.5,65.9,85.4,117.1c0.6,2.5,0.2,3.8-2.5,4.6c-13.7,4.1-27.5,7.2-41.8,7.8
		c-4.6,0.2-8,1.4-11.1,5.2c-3.8,4.4-8.5,8-12.7,11.9c-1.3,1.1-2.5,2.2-4.4,3.8c1.9,0.3,3,0.5,4.1,0.6c29.5,1.4,57.9-3,85.4-14
		c7.4-3,7.5-3,6.3-10.7c-8.6-54.3-34.9-98.4-78.7-131.7C583.1,229.5,573.4,224,563.5,217.6z M604.7,291.5c-0.3,0.2-0.8,0.3-1.1,0.5
		c-4.4,18.2-12.2,34.5-23.4,49.6c-32.5,44-90.6,64.1-142.6,49.6c-5.5-1.6-10.4-1.6-15.7,0.5c-7.4,2.8-15.1,4.7-22.9,7.1
		c1.4,0.8,2.4,1.3,3.5,1.9c18.7,9.3,38.5,14.6,59.3,16c27.8,1.7,54.2-3.5,79.1-15.7c24.6-12.1,44.7-29.5,60.3-52.1
		c7.1-10.2,12.9-21,17.1-32.8c0.3-1.1,0.8-2.7,0.3-3.5C613.9,305.5,609.2,298.6,604.7,291.5z M378.4,359.7c0-0.5,0.2-0.8,0.2-1.3
		c-0.6-0.5-1.3-0.8-1.7-1.4c-13-12.9-23.4-27.6-30.1-44.6c-11.1-27.5-13.7-55.7-6.4-84.8c6.1-25,18.5-46.3,36.7-64.2
		c3-3,4.7-5.8,5.5-10c1.6-8.5,3.8-16.8,5.8-25.7c-1.7,1.1-3.3,1.9-4.6,2.8c-14.6,10.4-27.6,22.5-38.1,37.1
		c-23.5,32.5-33.4,68.6-29.5,108.5c3,30.9,14.8,58.6,34.2,82.7c0.8,1.1,2.4,2.2,3.5,2.2C361.9,360.9,370.1,360.3,378.4,359.7z
		 M432.4,129.5c0.3,0.3,0.6,0.5,0.9,0.8c19.9-5.8,40-7.2,60.6-3.8c29.4,5,54.5,18.1,75.2,39.4c17.4,17.9,28.9,39.1,34.7,63.3
		c0.5,1.9,1.7,3.8,3.1,5.2c6,5.8,12.2,11.6,18.4,17.3c0.8,0.8,1.7,1.6,3,2.8c-0.5-15.5-3.3-29.8-8-43.8
		c-10-29.7-27.2-54.2-51.8-73.6c-23.2-18.2-49.6-29-78.8-32.7c-14.1-1.7-28.1-1.3-42.2,0.8c-1.4,0.2-3.3,0.9-3.9,2
		C439.8,114.8,436.2,122.3,432.4,129.5z M505.8,338.5c14,8.2,28.6,14,43.8,17.7c1.1,0.3,2.8-0.6,3.8-1.4c22-19,35.6-42.7,41.1-71.1
		c0.3-1.4-0.5-3.5-1.4-4.4c-3.6-3.8-7.2-7.5-11.3-10.7c-8-6.3-16.3-12.2-25.1-18.7C546.6,284,529.8,313,505.8,338.5z M387.1,250.6
		c-13.7,7.8-25.3,17.1-36,27.6c-2,2-2.5,3.8-1.9,6.4c6,27.8,19.3,51,40.7,69.9c1.9,1.6,3.5,1.9,5.7,1.3c13.5-3.6,26.5-8.6,38.8-15.4
		c1.1-0.6,2.2-1.4,3.5-2.2C413.8,313,397,284,387.1,250.6z M420.8,191.8c34.2-8.2,67.7-8.2,101.6,0c0-1.7,0.2-3,0-4.2
		c-1.4-11.6-3.1-23.2-4.4-34.9c-0.8-7.1-4.2-10.5-11.5-12.4c-25.4-6.9-50.6-6.6-75.5,2c-2.2,0.8-3.3,1.9-3.8,4.1
		c-1.7,8.6-3.8,17.1-5,25.7C421.3,178.3,421.3,184.8,420.8,191.8z M517.2,234.4c-23.9-8.5-75-8.3-90.7,0.3c8,30,23.1,55.9,45.4,78
		C494.1,290.6,509.2,264.7,517.2,234.4z M496.2,332.8c0.8-0.8,1.3-1.1,1.7-1.6c25.1-26.4,42.2-57.1,50.7-92.6
		c5.7-23.4,7.1-46.9,4.1-70.8c-0.2-1.3-0.3-3-1.3-3.8c-6.9-6.1-14.6-11.1-23.2-15.4c13.5,65.6-2.4,122.6-48.7,171.4
		C485.2,324.5,490.7,328.6,496.2,332.8z M540.1,365.8c-63.7-22.1-105-64.4-124.3-128.7c-6.4,2.7-12.7,5.3-19.6,8.2
		c2.5,6.9,4.6,13.5,7.1,19.9c20.9,51.8,57.3,88.9,108.3,111.5c1.1,0.5,2.8,0.9,3.8,0.5C523.8,373.6,532,369.7,540.1,365.8z
		 M522.4,203.1c-0.8-0.3-1.1-0.6-1.4-0.6c-0.9-0.3-1.9-0.5-2.8-0.8c-35.3-8.2-70.5-7.2-105.2,3.5c-20.1,6.1-38.6,15.5-56.2,27.2
		c-6.3,4.2-9.7,8.9-9.6,16.5c0.2,6.1,0,12.1,0,18.4c50.1-44.4,107.4-59,172.5-43.5C520.7,216.3,521.6,209.7,522.4,203.1z
		 M497.7,382.6c-8.3-4.9-16-9.3-23.7-14c-1.9-1.3-3.1-0.9-4.9,0.2c-6.9,4.1-13.8,8-20.9,12.1c-0.8,0.5-1.4,0.9-2.5,1.7
		C461.2,386.2,480.9,386.2,497.7,382.6z M564.6,176.6c0,10.2,0,19.6,0,29.2c0,0.6,0.6,1.6,1.3,1.9c8.2,4.6,16.3,9.1,24.6,14
		C585.2,204.9,576.6,190.3,564.6,176.6z M379.2,176.5c-12.2,13.8-20.7,28.4-26.2,45.2c8.5-4.9,16.8-9.4,25-14.1
		c0.6-0.3,1.3-1.3,1.3-2C379.2,196.1,379.2,186.8,379.2,176.5z M635.9,355.4c-2.8-10.4-5.7-19.6-10-28.3
		c-6.4,11.3-12.7,22.1-19.5,33.6C616.1,359,625.9,357.3,635.9,355.4z M317.4,326.5c-3.5,9.7-6.6,19-10,28.9
		c10.7,1.9,20.3,3.6,30,5.3C330.4,349.2,324.1,338.3,317.4,326.5z M451.9,93.6c13.7,0,26.2,0,39.7,0c-6.8-7.8-13-15.2-19.9-23.2
		C464.9,78.3,458.7,85.7,451.9,93.6z"/>
</g>
<g>
	<g>
		<path fill="#CCCCCC" d="M317.4,448.1c-20.6,0-35.5,15.5-35.5,34.4v0.2c0,19,14.8,34.2,35.3,34.2c20.4,0,35.3-15.5,35.5-34.4v-0.2
			C352.7,463.3,337.9,448.1,317.4,448.1L317.4,448.1z M317.4,503.3c-11.8,0-20.1-9.4-20.1-20.9v-0.2c0-11.5,8.2-20.7,19.9-20.7
			s20.1,9.4,20.1,20.9v0.2C337.3,494.1,329.1,503.3,317.4,503.3L317.4,503.3z"/>
	</g>
	<g>
		<path fill="#CCCCCC" d="M396.2,449.2h-30.5v66.6h14.6v-21.4h11.5l14.3,21.4v-0.2h17.3L407,491.9c8.5-3.1,14.3-9.9,14.3-20.6v-0.2
			C421.3,457.5,411.9,449.2,396.2,449.2L396.2,449.2z M380.2,481.5v-19.2h14.6c7.1,0,11.5,3.3,11.5,9.6h-0.2v0.2
			c0,5.7-4.1,9.4-11.1,9.4H380.2L380.2,481.5z"/>
	</g>
	<g>
		<path fill="#CCCCCC" d="M470.6,448.7h-13.5l-28.6,67h14.9l6.1-14.9h28.1l6.1,14.9h15.4L470.6,448.7L470.6,448.7z M454.9,487.8
			l8.8-21.5l8.9,21.5H454.9L454.9,487.8z"/>
	</g>
	<g>
		<polygon fill="#CCCCCC" points="551.3,449.2 496.2,449.2 496.2,462.7 516.4,462.7 516.4,515.7 531,515.7 531,462.7 551.3,462.7 
			551.3,449.2 		"/>
	</g>
	<g>
		<polygon fill="#CCCCCC" points="577.7,449.2 563.1,449.2 563.1,515.7 577.7,515.7 577.7,449.2 		"/>
	</g>
	<g>
		<path fill="#CCCCCC" d="M626.8,448.1c-20.6,0-35.5,15.5-35.5,34.4v0.2c0,19,14.8,34.2,35.3,34.2s35.5-15.5,35.5-34.4v-0.2
			C662.1,463.3,647.4,448.1,626.8,448.1L626.8,448.1z M627,503.3c-11.8,0-20.1-9.4-20.1-20.9v-0.2c0-11.5,8.2-20.7,19.9-20.7
			s20.1,9.4,20.1,20.9v0.2C646.9,494.1,638.7,503.3,627,503.3L627,503.3z"/>
	</g>
</g>
<g>
	<path fill="#CCCCCC" d="M1402.9,603.8c-21.6,0-37.8-15.8-37.8-36.7v-0.2c0-20.7,16.7-36.9,38-36.9c21.6,0,37.8,15.8,37.8,36.7v0.2
		C1440.7,587.6,1424,603.8,1402.9,603.8z M1403,535c-18.5,0-33,14-33,31.9v0.2c0,18.1,14.1,31.7,32.8,31.7c18.3,0,32.8-14,33-31.9
		v-0.1C1435.8,548.6,1421.7,535,1403,535z M1403,590.3c-12.9,0-22.6-10.1-22.6-23.4v-0.2c0-13.2,9.6-23.2,22.4-23.2
		c12.9,0,22.6,10.1,22.6,23.4v0.2C1425.5,580.3,1415.8,590.3,1403,590.3z M1402.9,548.5c-9.9,0-17.4,7.8-17.4,18.2v0.2
		c0,10.5,7.6,18.4,17.6,18.4c9.9,0,17.4-7.8,17.4-18.2v-0.2C1420.5,556.4,1412.9,548.5,1402.9,548.5z"/>
	<path fill="#CCCCCC" d="M1480.7,602.5h-14.3l-3.8,0.2l-14.3-21.4h-7.6v21.4H1421v-5.9l5-3.3v4.3h9.6v-21.4h15.3l14.2,21.2h11.3
		l-15.5-22.4l3-1.1c5.8-2.1,12.7-7,12.7-18.2v-0.2c0-12.4-8.2-19.5-22.6-19.5h-28v4l-5-3.3v-5.6h33c17,0,27.6,9.4,27.6,24.5v0.2
		c0,9.9-4.6,17.5-13,21.7l13.3,19.2 M1452.7,568.4h-14.3l-3-24.2h17.1c8.6,0,14,4.6,14,12.1v2.5h-0.4
		C1465.1,564.8,1460,568.4,1452.7,568.4z M1440.4,563.4h12.3c5.5,0,8.6-2.5,8.6-6.9v-1.9c-0.7-3.5-3.6-5.3-8.8-5.3h-12.1V563.4z"/>
	<path fill="#CCCCCC" d="M1465.3,577.1l6.7-4.2l17.5-42.2h16.8l30.7,72h-20.8l-6.1-14.9h-24.8l-5.1,13.9 M1476.9,596.7l5.1-13.9
		h31.5l6.1,14.9h9.9l-26.4-62h-10.2l-21.4,51.6 M1510.5,574.7h-25.2l12.5-30.6L1510.5,574.7z M1492.8,569.7h10.3l-5.2-12.5
		L1492.8,569.7z"/>
	<path fill="#CCCCCC" d="M1549.3,602.7h-19.6v-53.1h-20.3v-18.5h51.1v18.5h-11.3V602.7z M1534.7,597.7h9.6v-53.1h20.3v-8.5h-50.1
		v8.5h20.3V597.7z"/>
	<path fill="#CCCCCC" d="M1579.3,602.7h-19.6v-71.6h19.6V602.7z M1564.7,597.7h9.6v-61.6h-9.6V597.7z"/>
	<path fill="#CCCCCC" d="M1576.3,536.2c6.1-3.9,13.4-6.2,21.4-6.2c21.6,0,37.8,15.8,37.8,36.7v0.2c0,20.7-16.7,36.9-38,36.9
		c-7.7,0-14.7-2-20.5-5.5 M1577.3,592.3c5.5,4.1,12.5,6.4,20.3,6.4c18.5,0,33-14,33-31.9v-0.2c0-18.1-14.1-31.7-32.8-31.7
		c-8.2,0-15.5,2.7-21.2,7.3 M1597.9,590.3c-12.9,0-22.6-10.1-22.6-23.4v-0.2c0-13.2,9.6-23.2,22.4-23.2c12.9,0,22.6,10.1,22.6,23.4
		v0.2C1620.3,580.3,1610.7,590.3,1597.9,590.3z M1597.7,548.5c-9.9,0-17.4,7.8-17.4,18.2v0.2c0,10.5,7.6,18.4,17.6,18.4
		c9.9,0,17.4-7.8,17.4-18.2v-0.2C1615.3,556.4,1607.7,548.5,1597.7,548.5z"/>
</g>
<g>
	<path fill="#CCCCCC" d="M1402.9,710.1c-21.6,0-37.8-15.8-37.8-36.7v-0.2c0-20.7,16.7-36.9,38-36.9c21.6,0,37.8,15.8,37.8,36.7v0.2
		C1440.7,694,1424,710.1,1402.9,710.1z M1403,641.4c-18.5,0-33,14-33,31.9v0.2c0,18.1,14.1,31.7,32.8,31.7c18.3,0,32.8-14,33-31.9
		v-0.1C1435.8,655,1421.7,641.4,1403,641.4z M1403,696.6c-12.9,0-22.6-10.1-22.6-23.4v-0.2c0-13.2,9.6-23.2,22.4-23.2
		c12.9,0,22.6,10.1,22.6,23.4v0.2C1425.5,686.7,1415.8,696.6,1403,696.6z M1402.9,654.9c-9.9,0-17.4,7.8-17.4,18.2v0.2
		c0,10.5,7.6,18.4,17.6,18.4c9.9,0,17.4-7.8,17.4-18.2v-0.2C1420.5,662.8,1412.9,654.9,1402.9,654.9z"/>
	<path fill="#CCCCCC" d="M1490.4,709l-14.3-21.4h-7.6V709h-19.6v-71.6h33c17,0,27.6,9.4,27.6,24.5v0.2c0,9.9-4.6,17.5-13,21.7
		l17.3,25.1h-19.5L1490.4,709z M1453.9,704h9.6v-21.4h15.3l14.2,21.2h11.3l-15.5-22.4l3-1.1c5.8-2.1,12.7-7,12.7-18.2V662
		c0-12.4-8.2-19.5-22.6-19.5h-28V704z M1480.6,674.8h-17.3v-24.2h17.1c8.6,0,14,4.6,14,12.1v2.5h-0.4
		C1493,671.1,1487.9,674.8,1480.6,674.8z M1468.3,669.8h12.3c5.5,0,8.6-2.5,8.6-6.9V661c-0.7-3.5-3.6-5.3-8.8-5.3h-12.1V669.8z"/>
	<path fill="#CCCCCC" d="M1588.6,709h-20.8l-6.1-14.9h-24.8l-6.1,14.9h-20.4l30.7-72h16.8L1588.6,709z M1571.1,704h9.9l-26.4-62
		h-10.2l-26.4,62h9.5l6.1-14.9h31.5L1571.1,704z M1562,681.1h-25.2l12.5-30.6L1562,681.1z M1544.3,676.1h10.3l-5.2-12.5
		L1544.3,676.1z"/>
	<path fill="#CCCCCC" d="M1619.2,709h-19.6V656h-20.3v-18.5h60.1V656h-20.3V709z M1604.6,704h9.6V651h20.3v-8.5h-50.1v8.5h20.3V704z
		"/>
	<path fill="#CCCCCC" d="M1665.8,709h-19.6v-71.6h19.6V709z M1651.2,704h9.6v-61.6h-9.6V704z"/>
	<path fill="#CCCCCC" d="M1712.3,710.1c-21.6,0-37.8-15.8-37.8-36.7v-0.2c0-20.7,16.7-36.9,38-36.9c21.6,0,37.8,15.8,37.8,36.7v0.2
		C1750.3,693.9,1733.6,710.1,1712.3,710.1z M1712.5,641.4c-18.5,0-33,14-33,31.9v0.2c0,18.1,14.1,31.7,32.8,31.7
		c18.5,0,33-14,33-31.9v-0.2C1745.3,655,1731.2,641.4,1712.5,641.4z M1712.6,696.6c-12.9,0-22.6-10.1-22.6-23.4v-0.2
		c0-13.2,9.6-23.2,22.4-23.2c12.9,0,22.6,10.1,22.6,23.4v0.2C1735,686.7,1725.4,696.6,1712.6,696.6z M1712.5,654.9
		c-9.9,0-17.4,7.8-17.4,18.2v0.2c0,10.5,7.6,18.4,17.6,18.4c9.9,0,17.4-7.8,17.4-18.2v-0.2C1730,662.8,1722.5,654.9,1712.5,654.9z"
		/>
</g>
<g>
	<g>
		<g>
			<g>
				<path fill="#8B8B8B" d="M325.2,932c-20.6,0-35.3-15.2-35.3-34.2v-0.2c0-18.8,14.9-34.4,35.5-34.4c20.6,0,35.3,15.2,35.3,34.2
					v0.2C360.5,916.5,345.6,932,325.2,932z M345.3,897.6c0-11.5-8.3-20.9-20.1-20.9s-19.9,9.3-19.9,20.7v0.2
					c0,11.5,8.3,20.9,20.1,20.9s19.9-9.3,19.9-20.7V897.6z"/>
			</g>
			<g>
				<path fill="#8B8B8B" d="M414.1,930.9l-14.3-21.4h-11.5v21.4h-14.6v-66.6h30.5c15.7,0,25.1,8.3,25.1,22v0.2
					c0,10.7-5.8,17.4-14.3,20.6l16.3,23.7h-17.3V930.9z M414.2,887.1c0-6.3-4.4-9.6-11.5-9.6h-14.6v19.2h14.8
					c7.1,0,11.1-3.8,11.1-9.4v-0.2H414.2z"/>
			</g>
			<g>
				<path fill="#8B8B8B" d="M491.8,930.9l-6.1-14.9h-28.1l-6.1,14.9h-14.9l28.6-67h13.5l28.6,67H491.8z M471.7,881.5l-8.8,21.5h17.7
					L471.7,881.5z"/>
			</g>
			<g>
				<polygon fill="#8B8B8B" points="539,877.8 539,930.9 524.4,930.9 524.4,877.8 504.2,877.8 504.2,864.3 559.3,864.3 559.3,877.8 
									"/>
			</g>
			<g>
				<rect x="571.1" y="864.3" fill="#8B8B8B" width="14.6" height="66.6"/>
			</g>
			<g>
				<path fill="#8B8B8B" d="M634.6,932c-20.6,0-35.3-15.2-35.3-34.2v-0.2c0-18.8,14.9-34.4,35.5-34.4c20.6,0,35.3,15.2,35.3,34.2
					v0.2C670.1,916.5,655.2,932,634.6,932z M654.9,897.6c0-11.5-8.3-20.9-20.1-20.9s-19.9,9.3-19.9,20.7v0.2
					c0,11.5,8.3,20.9,20.1,20.9s19.9-9.3,19.9-20.7V897.6z"/>
			</g>
		</g>
	</g>
	<path fill="#8B8B8B" d="M471.4,1089.7c0.1,0,0.1,0,0.2,0c0.5,0,0.9-0.2,1.3-0.4c0.1-0.1,0.2-0.2,0.3-0.3c0,0,0,0,0.1,0
		c0.1,0.1,0.1,0.1,0.2,0.2c0.3,0.2,0.5,0.4,0.9,0.5c0.2,0.1,0.4,0.1,0.6,0.1c0.1,0,0.1,0,0.2,0c0.3,0,0.6,0,0.9,0
		c0.6-0.1,1.2-0.4,1.6-1c0.3-0.4,0.5-0.9,0.5-1.5l0,0c0-0.1,0-0.3,0-0.4c0-0.1,0-0.2,0-0.2c0-0.3-0.1-0.6-0.2-0.9
		c-0.1-0.2-0.2-0.4-0.4-0.6c0,0-0.1-0.1-0.1-0.1c0,0,0.1-0.1,0.1-0.1c0.1-0.2,0.3-0.4,0.4-0.6c0.3-0.5,0.3-1,0.4-1.5
		c0-0.3,0-0.6,0-0.9c0-0.3-0.1-0.6-0.2-0.8c-0.1-0.4-0.3-0.7-0.7-1.1c0,0,0.1-0.1,0.1-0.1c0-0.1,0.1-0.1,0.1-0.2
		c0.1-0.2,0.2-0.3,0.3-0.5c0.3-0.5,0.3-1,0.3-1.5c0-0.1,0-0.1,0-0.2c0-0.4,0-0.7-0.1-0.9c-0.1-0.3-0.1-0.6-0.3-0.9
		c-0.1-0.2-0.3-0.4-0.4-0.6c0,0-0.1-0.1-0.1-0.1c0,0,0.1-0.1,0.1-0.1c0.1-0.2,0.3-0.4,0.4-0.6c0.3-0.5,0.3-1,0.4-1.5
		c0-0.4,0-0.8-0.1-1.1c-0.1-0.6-0.3-1.2-0.8-1.7c0,0,0,0,0,0c0,0,0,0,0,0l0.1-0.1c0.2-0.2,0.3-0.4,0.5-0.7c0.3-0.5,0.3-1,0.3-1.4
		c0-0.2,0-0.5,0-0.8c0-0.2-0.1-0.5-0.1-0.7c-0.1-0.5-0.4-0.9-0.7-1.3c0,0,0-0.1,0.1-0.1c0.1-0.1,0.2-0.3,0.3-0.4
		c0.3-0.4,0.5-1,0.5-1.7c0-0.3,0-0.7,0-1l0-0.2c0-0.4-0.2-0.8-0.4-1.2c-0.1-0.1-0.2-0.3-0.3-0.4c0,0,0,0,0-0.1
		c0-0.1,0.1-0.1,0.1-0.2c0.1-0.2,0.3-0.4,0.4-0.6c0.3-0.5,0.3-1,0.3-1.4c0-0.2,0-0.4,0-0.5c0-0.1,0-0.2,0-0.3c0-0.4-0.1-0.8-0.3-1.2
		c-0.1-0.2-0.3-0.4-0.4-0.6c0-0.1-0.1-0.1-0.1-0.2c0.1-0.1,0.1-0.1,0.2-0.2c0.4-0.5,0.7-1.2,0.7-2c0-0.4,0-0.7-0.1-1.1
		c0-0.4-0.2-0.8-0.4-1.1c-0.1-0.2-0.2-0.3-0.3-0.5c0,0-0.1-0.1-0.1-0.1c0,0,0,0,0.1-0.1c0-0.1,0.1-0.1,0.1-0.2
		c0.1-0.2,0.3-0.4,0.4-0.6c0.2-0.4,0.3-0.9,0.3-1.4c0-0.3,0-0.6,0-1c0-0.5-0.2-0.9-0.4-1.2c-0.1-0.2-0.2-0.3-0.4-0.5
		c0,0-0.1-0.1-0.1-0.1c0,0,0,0,0,0c0.1-0.1,0.1-0.1,0.2-0.2c0.4-0.5,0.7-1.2,0.7-2l0,0c0-0.3,0-0.6-0.1-1c0-0.4-0.2-0.7-0.4-1.1
		c-0.1-0.2-0.2-0.3-0.3-0.5c0,0-0.1-0.1-0.1-0.1c0,0,0,0,0,0c0.1-0.1,0.2-0.2,0.3-0.3c0.4-0.5,0.6-1.1,0.6-1.9c0-0.2,0-0.3,0-0.5
		c0-0.1,0-0.2,0-0.3c0-0.5-0.1-0.8-0.3-1.2c-0.1-0.2-0.3-0.4-0.4-0.6c0-0.1-0.1-0.1-0.1-0.2c0,0,0-0.1,0.1-0.1
		c0.1-0.2,0.2-0.3,0.3-0.5c0.2-0.3,0.3-0.6,0.3-1.1c0-0.2,0-0.4,0-0.6c0-0.3,0-0.6-0.1-0.8c-0.2-0.5-0.4-0.9-0.9-1.3
		c-0.4-0.4-0.9-0.6-1.5-0.6c-0.4,0-0.7,0-1,0.1c-0.4,0-0.6,0.2-0.9,0.3c-0.1,0.1-0.3,0.2-0.4,0.3l-0.1,0.1c0,0-0.1-0.1-0.1-0.1
		c-0.2-0.2-0.5-0.4-0.8-0.5c-0.3-0.1-0.6-0.1-0.8-0.1c-0.3,0-0.6,0-1,0c-0.7,0.1-1.2,0.5-1.6,1c-0.3,0.4-0.5,0.9-0.5,1.5l0,0.1
		c0,0.2,0,0.4,0,0.6c0,0.3,0.1,0.5,0.2,0.8c0.1,0.3,0.3,0.6,0.5,0.8c0,0,0,0.1-0.1,0.1c-0.1,0.1-0.2,0.3-0.3,0.4
		c-0.3,0.5-0.5,1-0.5,1.7l0,0.1c0,0.3,0,0.7,0.1,1.1c0,0.4,0.1,0.7,0.3,0.9c0.1,0.2,0.3,0.4,0.4,0.6c0,0,0.1,0.1,0.1,0.1
		c0,0-0.1,0.1-0.1,0.1c0,0.1-0.1,0.1-0.1,0.2c-0.1,0.2-0.3,0.4-0.4,0.5c-0.2,0.4-0.3,0.8-0.3,1.4v0c0,0.2,0,0.5,0,0.7l0,0.1
		c0,0.3,0.1,0.7,0.2,0.9c0.1,0.3,0.4,0.6,0.6,0.9c0,0,0,0.1-0.1,0.1c-0.1,0.1-0.2,0.3-0.3,0.4c-0.3,0.5-0.5,1-0.5,1.7
		c0,0.4,0,0.7,0.1,1.2c0,0.4,0.1,0.7,0.3,0.9c0.1,0.2,0.3,0.4,0.4,0.6c0,0,0.1,0.1,0.1,0.1c-0.6,0.6-0.9,1.3-0.9,2.3
		c0,0,0,0.1,0,0.1l0,0c0,0.2,0,0.5,0,0.7c0,0.3,0.1,0.5,0.1,0.7c0.1,0.4,0.4,0.8,0.7,1.2c0,0,0,0-0.1,0.1c-0.1,0.1-0.2,0.3-0.3,0.4
		c-0.3,0.5-0.5,1-0.5,1.6c0,0.4,0,0.8,0,1.1l0,0.1c0,0.4,0.2,0.8,0.4,1.2c0.1,0.1,0.2,0.3,0.3,0.4c0,0,0,0,0.1,0.1
		c0,0.1-0.1,0.1-0.1,0.2c-0.1,0.2-0.3,0.4-0.4,0.6c-0.2,0.4-0.3,0.8-0.3,1.4c0,0.3,0,0.6,0,0.8l0,0.1c0,0.3,0.1,0.6,0.2,0.9
		c0.2,0.3,0.4,0.7,0.6,0.9c0,0-0.1,0.1-0.1,0.1c-0.5,0.5-0.8,1.2-0.8,2.1c0,0.2,0,0.4,0,0.6c0,0.1,0,0.1,0,0.2
		c0,0.5,0.1,0.8,0.3,1.2c0.1,0.2,0.3,0.4,0.4,0.6c0,0.1,0.1,0.1,0.1,0.2c-0.1,0.1-0.1,0.1-0.2,0.2c-0.4,0.4-0.6,1-0.6,1.5
		c0,0.2,0,0.5,0,0.7c0,0.1,0,0.2,0,0.3c0,0.3,0.1,0.6,0.1,0.9c0.1,0.4,0.3,0.8,0.7,1.2c-0.1,0.1-0.1,0.1-0.2,0.2
		c-0.4,0.5-0.7,1.2-0.7,2c0,0.3,0,0.5,0,0.8l0,0.1c0,0.4,0.1,0.8,0.3,1.1c0.1,0.2,0.3,0.4,0.4,0.7c0,0.1,0.1,0.1,0.1,0.2
		c0,0,0,0,0,0c-0.1,0.1-0.2,0.2-0.2,0.3c-0.4,0.5-0.6,1.1-0.6,1.9c0,0.3,0,0.6,0,0.9c0,0.3,0.1,0.6,0.2,0.9c0.1,0.3,0.3,0.6,0.6,0.9
		c0,0.1-0.1,0.1-0.1,0.2c-0.3,0.3-0.5,0.7-0.5,1c-0.1,0.3-0.1,0.5-0.1,0.9c0,0.1,0,0.2,0,0.4c0,0.2,0.1,0.5,0.1,0.7
		c0.1,0.4,0.4,0.8,0.9,1.2c0.4,0.3,0.9,0.5,1.5,0.5C471.2,1089.7,471.3,1089.7,471.4,1089.7z M469.2,1084c-0.2-0.3-0.3-0.7-0.3-1
		c0,0,0-0.1,0-0.1c0-0.2,0-0.4,0-0.5c0-0.5,0.1-1.2,0.5-1.8c0.1-0.1,0.2-0.2,0.2-0.3c0.2,0.2,0.5,0.5,0.7,0.7l0.2,0.2
		c0,0,0,0-0.1,0.1c-0.1,0.1-0.2,0.3-0.3,0.4c-0.3,0.6-0.2,1.2,0.1,1.8c0.1,0.1,0.2,0.2,0.3,0.4c0.6,0.6,1.1,1.1,1.7,1.7l0.5,0.5
		c0,0,0.1,0,0.1,0.1c0,0,0.1,0.1,0.1,0.1c-0.3,0.3-0.5,0.5-0.8,0.8l-0.1,0.1c-0.2-0.2-0.4-0.4-0.5-0.5c-0.5-0.5-1.1-1.1-1.6-1.6
		C469.7,1084.6,469.4,1084.3,469.2,1084z M468.9,1077.3c0-0.1,0-0.2,0-0.2c0-0.3,0-0.6,0.2-0.9c0.1-0.3,0.3-0.6,0.5-0.9l0.9,0.9
		c0,0,0,0,0,0c-0.1,0.1-0.2,0.2-0.2,0.3c-0.3,0.4-0.3,0.9-0.1,1.5c0.1,0.3,0.2,0.5,0.5,0.7c0.5,0.5,1,1,1.5,1.5
		c0.3,0.3,0.6,0.6,0.8,0.8l-0.9,0.9c-0.2-0.2-0.4-0.4-0.6-0.6c-0.6-0.6-1.2-1.2-1.8-1.8c-0.4-0.4-0.7-0.9-0.8-1.5c0-0.2,0-0.4,0-0.7
		L468.9,1077.3z M468.9,1072.4C468.9,1072.4,468.9,1072.4,468.9,1072.4c0-0.6,0.1-1.1,0.4-1.6c0.1-0.2,0.2-0.3,0.3-0.4
		c0,0,0,0,0-0.1l0.9,0.9c0,0,0,0,0,0c-0.1,0.1-0.2,0.2-0.3,0.4c-0.3,0.6-0.3,1.2,0.1,1.7c0.1,0.2,0.2,0.3,0.4,0.5
		c0.5,0.5,0.9,0.9,1.5,1.5c0.3,0.3,0.5,0.5,0.8,0.8l0.1,0.1c-0.2,0.2-0.5,0.5-0.7,0.7l-0.2,0.2c0,0,0,0,0,0
		c-0.2-0.2-0.4-0.4-0.6-0.6c-0.5-0.5-1-1-1.5-1.5c-0.3-0.3-0.6-0.6-0.7-0.9c-0.2-0.3-0.3-0.6-0.3-0.9c0-0.1,0-0.1,0-0.2
		C468.9,1072.7,468.9,1072.5,468.9,1072.4C468.9,1072.4,468.9,1072.4,468.9,1072.4z M468.9,1067.7c0-0.1,0-0.2,0-0.4
		c0-0.5,0.1-1.1,0.3-1.5c0.1-0.2,0.2-0.3,0.3-0.5c0,0,0-0.1,0.1-0.1l0.2,0.2c0.2,0.3,0.5,0.5,0.7,0.7c0,0,0,0.1-0.1,0.1
		c-0.1,0.1-0.2,0.2-0.2,0.3c-0.2,0.3-0.2,0.6-0.2,1c0.1,0.6,0.4,0.9,0.7,1.2c0.5,0.5,1,1,1.5,1.5c0.3,0.3,0.5,0.5,0.8,0.8
		c0,0,0,0,0,0l-0.9,0.9c-0.2-0.2-0.4-0.4-0.6-0.6c-0.6-0.6-1.2-1.2-1.8-1.8c-0.4-0.4-0.6-0.8-0.7-1.3c0-0.1,0-0.3-0.1-0.4
		C468.9,1067.8,468.9,1067.8,468.9,1067.7L468.9,1067.7z M468.9,1057.7c0-0.1,0-0.1,0-0.2c0,0,0,0,0,0c0-0.6,0-1.2,0.3-1.7
		c0.1-0.2,0.2-0.3,0.3-0.5c0,0,0,0,0.1-0.1l0.9,0.9c-0.2,0.2-0.4,0.5-0.5,0.8c-0.1,0.6,0,1.1,0.3,1.5c0.1,0.1,0.2,0.2,0.3,0.3
		c0.6,0.6,1.1,1.1,1.7,1.7l0.7,0.7l-0.9,0.9c-0.3-0.3-0.5-0.5-0.8-0.8c-0.5-0.5-1-1-1.5-1.5c-0.4-0.5-0.7-0.9-0.8-1.5
		c0-0.1,0-0.2-0.1-0.4C468.9,1057.9,468.9,1057.9,468.9,1057.7C468.9,1057.8,468.9,1057.8,468.9,1057.7z M468.9,1052.7
		c0-0.1,0-0.2,0-0.3c0-0.5,0.1-1,0.3-1.5c0.1-0.2,0.2-0.3,0.3-0.5c0,0,0-0.1,0.1-0.1l0.9,0.9c0,0.1-0.1,0.1-0.1,0.2
		c-0.2,0.2-0.3,0.5-0.3,0.8c-0.1,0.5,0,0.9,0.3,1.4c0,0.1,0.1,0.1,0.2,0.2c0.3,0.3,0.7,0.7,1,1l0.4,0.4c0.1,0.1,0.2,0.2,0.3,0.3
		l0.3,0.3c0.2,0.2,0.3,0.3,0.5,0.5c-0.2,0.2-0.5,0.5-0.7,0.7l-0.2,0.2c0,0,0,0,0,0l-0.4-0.4c-0.6-0.6-1.1-1.2-1.7-1.7
		c-0.4-0.4-0.6-0.7-0.8-1.1c-0.1-0.3-0.2-0.6-0.2-1C468.9,1052.8,468.9,1052.7,468.9,1052.7z M468.9,1037.5c0-0.1,0-0.3,0-0.4
		c0-0.6,0.2-1.1,0.5-1.5c0-0.1,0.1-0.1,0.2-0.2l0.9,0.9c-0.2,0.2-0.4,0.4-0.4,0.8c-0.1,0.5,0,1.1,0.3,1.5c0.1,0.1,0.2,0.2,0.3,0.3
		c0.6,0.6,1.1,1.1,1.7,1.7l0.7,0.7l-0.9,0.9c-0.3-0.3-0.5-0.5-0.8-0.8c-0.5-0.5-1-1-1.5-1.5c-0.4-0.4-0.7-0.9-0.8-1.3
		c-0.1-0.2-0.1-0.4-0.1-0.7C468.9,1037.8,468.9,1037.7,468.9,1037.5z M477.8,1037.9c0,0.7-0.2,1.2-0.7,1.7c0,0,0,0-0.1,0.1l-0.9-0.9
		c0.2-0.2,0.3-0.5,0.4-0.8c0.2-0.6,0-1.2-0.4-1.7c-0.4-0.5-0.9-0.9-1.3-1.3c-0.4-0.4-0.8-0.8-1.2-1.2c0,0,0,0,0,0c0,0,0,0,0,0
		c0.2-0.2,0.5-0.5,0.7-0.7c0.1-0.1,0.1-0.1,0.2-0.2c0,0,0,0,0,0l0.5,0.5c0.6,0.6,1.2,1.2,1.8,1.8c0.4,0.4,0.7,0.8,0.8,1.3
		c0.1,0.2,0.1,0.4,0.1,0.6S477.8,1037.6,477.8,1037.9z M477.8,1042.1c0,0.2,0,0.3,0,0.5c0,0.4-0.1,0.7-0.1,1
		c-0.1,0.4-0.3,0.8-0.6,1.1l-0.9-0.8c0.2-0.3,0.4-0.5,0.5-0.9c0.1-0.5,0-1-0.3-1.5c-0.1-0.1-0.2-0.2-0.3-0.3
		c-0.8-0.8-1.5-1.6-2.3-2.3l0.9-0.9l0,0c0.1,0.1,0.2,0.2,0.3,0.4c0.1,0.1,0.1,0.1,0.2,0.2l0.1,0.1c0.1,0.1,0.3,0.3,0.4,0.4
		c0.3,0.3,0.7,0.7,1,1c0.3,0.3,0.6,0.6,0.8,1c0.2,0.3,0.2,0.6,0.3,0.9C477.8,1042,477.8,1042,477.8,1042.1z M477.8,1047.4
		c0,0.1,0,0.2,0,0.3l0,0.1c0,0.7-0.2,1.3-0.6,1.7c0,0,0,0.1-0.1,0.1l-0.9-0.9c0,0,0,0,0,0c0.1-0.1,0.2-0.2,0.2-0.4
		c0.2-0.3,0.3-0.7,0.2-1c0-0.4-0.2-0.8-0.5-1.1c-0.2-0.2-0.3-0.4-0.5-0.5c-0.2-0.2-0.5-0.5-0.7-0.8c-0.4-0.4-0.9-0.9-1.2-1.2
		c0.2-0.2,0.5-0.5,0.7-0.7c0.1-0.1,0.1-0.1,0.2-0.2c0,0,0,0,0,0l0.3,0.3c0.7,0.7,1.3,1.3,2,2c0.4,0.4,0.7,0.8,0.8,1.3
		c0,0.2,0.1,0.4,0.1,0.6C477.8,1047.2,477.8,1047.3,477.8,1047.4z M477.8,1052c0,0.2,0,0.3,0,0.4l0,0c0,1-0.2,1.6-0.7,2.1l-0.9-0.8
		c0.2-0.2,0.4-0.5,0.4-0.8c0.2-0.6,0.1-1.2-0.3-1.6c-0.5-0.5-1-1-1.4-1.5c-0.2-0.2-0.4-0.4-0.5-0.5c-0.2-0.2-0.3-0.3-0.5-0.5
		c0,0-0.1-0.1-0.1-0.1l0.9-0.9c0,0,0,0,0.1,0.1c0.1,0.1,0.2,0.3,0.4,0.4c0.1,0.1,0.2,0.2,0.4,0.4c0.4,0.4,0.9,0.9,1.3,1.3
		c0.4,0.3,0.6,0.7,0.8,1c0.1,0.3,0.2,0.6,0.3,0.9C477.8,1051.9,477.8,1052,477.8,1052z M477.8,1072.4c0,0.9-0.2,1.5-0.6,2
		c0,0,0,0,0,0c0,0,0,0,0,0c0,0,0,0.1-0.1,0.1l-0.9-0.9c0,0,0,0,0-0.1c0.1-0.1,0.2-0.3,0.3-0.4c0.1-0.2,0.2-0.5,0.2-0.8
		c0-0.4-0.2-0.8-0.4-1.1c-0.3-0.3-0.6-0.7-0.9-1c-0.2-0.2-0.3-0.3-0.5-0.5c-0.3-0.3-0.6-0.6-0.8-0.9l-0.3-0.3l0.9-0.9
		c0.2,0.2,0.4,0.4,0.6,0.6c0.5,0.5,1,1,1.5,1.5c0.4,0.4,0.7,0.8,0.8,1.1c0.1,0.2,0.2,0.5,0.2,0.8
		C477.8,1072,477.8,1072.2,477.8,1072.4z M477.8,1078c0,0.4-0.1,0.7-0.3,1c-0.1,0.2-0.2,0.3-0.3,0.5c0,0,0,0,0,0.1l-0.9-0.9
		c0,0,0.1-0.1,0.1-0.1c0.2-0.3,0.4-0.7,0.4-1.1c0-0.5-0.2-0.9-0.5-1.2c-0.8-0.8-1.6-1.6-2.5-2.5c0,0,0,0,0,0c0,0,0,0,0,0
		c0.2-0.2,0.5-0.5,0.7-0.7c0.1-0.1,0.1-0.1,0.2-0.2c0,0,0,0,0,0c0.8,0.8,1.5,1.5,2.3,2.3c0.5,0.5,0.8,1,0.9,1.7
		C477.8,1077.1,477.8,1077.5,477.8,1078z M471.7,1032.5l-0.9,0.9c-0.1-0.2-0.2-0.4-0.2-0.6c0-0.2,0.2-0.4,0.4-0.4
		C471.3,1032.4,471.5,1032.4,471.7,1032.5z M475.4,1032.4c0.3,0,0.4,0.2,0.5,0.4c0,0.1,0,0.1,0,0.2c0,0.1-0.1,0.3-0.2,0.5l-0.9-0.9
		C475.1,1032.4,475.3,1032.4,475.4,1032.4z M475,1087.3l0.9-0.9c0.1,0.2,0.2,0.3,0.2,0.5c0,0.2-0.1,0.3-0.2,0.4
		C475.6,1087.6,475.2,1087.6,475,1087.3z M475,1082.4L475,1082.4c0.2-0.3,0.5-0.5,0.7-0.7l0.2-0.2c0.2,0.2,0.4,0.5,0.4,0.9
		c0,0.3-0.1,0.7-0.4,0.9c0,0,0,0-0.1-0.1c-0.1-0.1-0.2-0.2-0.4-0.4C475.3,1082.7,475.1,1082.5,475,1082.4z M475.4,1081.1l-3.3,3.3
		l-0.9-0.9l3.3-3.3L475.4,1081.1z M474.2,1084.8l-0.8,0.8l-0.9-0.9l0.8-0.9L474.2,1084.8z M470.8,1078.2c-0.2-0.2-0.4-0.5-0.4-0.9
		c0-0.3,0.1-0.6,0.4-0.9l0.9,0.9L470.8,1078.2z M473.3,1075.8l-0.8-0.8c0,0-0.1-0.1-0.1-0.1c0,0,0.1-0.1,0.1-0.1l0.7-0.7l0.9,0.9
		L473.3,1075.8z M475,1077.4l0.9-0.9c0.2,0.2,0.4,0.5,0.4,0.9c0,0.3-0.1,0.6-0.4,0.9L475,1077.4z M472.1,1079.5l-0.9-0.9l3.4-3.3
		l0.8,0.8L472.1,1079.5z M474.2,1079.9l-0.8,0.8l-0.8-0.8l0.8-0.8L474.2,1079.9z M472.1,1074.5l-0.9-0.9l3.3-3.3l0.9,0.9
		L472.1,1074.5z M475.8,1073.3l-0.8-0.9l0.9-0.9c0.2,0.2,0.4,0.5,0.4,0.8C476.2,1072.7,476.1,1073,475.8,1073.3z M470.8,1068.3
		c-0.2-0.3-0.4-0.6-0.4-0.9v0c0-0.3,0.1-0.6,0.4-0.9l0.9,0.9L470.8,1068.3z M470.8,1063.3c-0.3-0.3-0.4-0.6-0.4-0.9
		c0-0.3,0.1-0.6,0.3-0.8c0,0,0.1-0.1,0.1-0.1c0,0,0,0,0.1,0.1l0.8,0.8L470.8,1063.3z M473.3,1060.8l-0.8-0.8l0.8-0.8l0.8,0.8
		L473.3,1060.8z M475.8,1063.3l-0.8-0.9l0.9-0.9c0.2,0.2,0.4,0.5,0.4,0.8C476.2,1062.8,476.1,1063.1,475.8,1063.3z M472.1,1064.6
		l-0.9-0.9l3.3-3.3l0.9,0.9L472.1,1064.6z M473.3,1065.8L473.3,1065.8c-0.3-0.3-0.6-0.6-0.9-0.9c0.3-0.3,0.5-0.5,0.8-0.8l0.1-0.1
		l0.9,0.9L473.3,1065.8z M475.8,1068.3l-0.9-0.9l0.9-0.9c0.2,0.2,0.4,0.5,0.4,0.9C476.2,1067.8,476.1,1068.1,475.8,1068.3z
		 M472.1,1069.5l-0.9-0.9l3.4-3.3l0.8,0.8L472.1,1069.5z M474.2,1069.9l-0.8,0.8l-0.8-0.8l0.8-0.8L474.2,1069.9z M470.8,1058.3
		c-0.3-0.3-0.4-0.6-0.4-0.9c0,0,0,0,0,0c0-0.2,0-0.3,0.1-0.5c0-0.1,0.1-0.2,0.2-0.4c0,0,0,0,0-0.1l0.9,0.9l-0.1,0.1
		C471.4,1057.8,471.1,1058.1,470.8,1058.3z M473.3,1055.8c-0.1-0.1-0.1-0.1-0.2-0.2c-0.2-0.2-0.4-0.5-0.7-0.7
		c0.2-0.2,0.5-0.5,0.7-0.7l0.2-0.2l0.8,0.9L473.3,1055.8z M475.4,1056.2l-3.3,3.3l-0.9-0.9l3.4-3.3L475.4,1056.2z M475.9,1056.6
		c0.2,0.2,0.3,0.5,0.3,0.9c0,0.3-0.1,0.6-0.4,0.9l-0.9-0.9L475.9,1056.6z M475.4,1051.3l-3.3,3.3l-0.8-0.8l3.3-3.3L475.4,1051.3z
		 M475.8,1053.4l-0.8-0.9l0.9-0.9c0.2,0.2,0.4,0.5,0.4,0.8C476.2,1052.8,476.1,1053.1,475.8,1053.4z M470.8,1048.4
		c-0.1-0.2-0.3-0.4-0.3-0.6c-0.1-0.4,0-0.8,0.2-1.1c0,0,0.1-0.1,0.1-0.1l0.9,0.9c0,0-0.1,0-0.1,0.1
		C471.3,1047.9,471.1,1048.1,470.8,1048.4z M473.3,1045.9L473.3,1045.9c-0.2-0.2-0.3-0.3-0.4-0.4c-0.2-0.2-0.3-0.3-0.5-0.5
		c0.2-0.2,0.5-0.5,0.7-0.7l0.1-0.1l0.1,0.1c0.2,0.2,0.4,0.4,0.6,0.6c0,0,0.1,0.1,0.1,0.1c0,0,0.1,0.1,0.1,0.1
		C473.9,1045.3,473.7,1045.5,473.3,1045.9L473.3,1045.9z M475.8,1046.6c0.2,0.2,0.4,0.5,0.4,0.9c0,0.3-0.1,0.6-0.4,0.9l-0.9-0.9
		L475.8,1046.6z M472.1,1049.6l-0.9-0.9l3.4-3.4l0.9,0.9L472.1,1049.6z M473.3,1049.2l0.8,0.8l-0.8,0.8l-0.8-0.8L473.3,1049.2z
		 M470.8,1043.4c-0.2-0.2-0.4-0.5-0.4-0.9c0,0,0,0,0,0c0-0.3,0.1-0.6,0.3-0.8c0,0,0,0,0,0c0.2,0.2,0.5,0.5,0.7,0.7l0.1,0.1
		L470.8,1043.4z M470.8,1038.4c-0.1-0.2-0.3-0.3-0.3-0.6c0-0.1,0-0.2,0-0.4c0,0,0,0,0,0c0-0.3,0.1-0.5,0.3-0.7l0.1-0.1l0.9,0.9
		l-0.6,0.6c0,0-0.1,0.1-0.1,0.1C471,1038.3,470.9,1038.4,470.8,1038.4z M473.3,1035.9L473.3,1035.9c-0.4-0.4-0.6-0.6-0.9-0.9
		c0.3-0.3,0.5-0.5,0.8-0.8l0.1-0.1c0.1,0.1,0.1,0.1,0.2,0.2c0.3,0.3,0.5,0.5,0.7,0.7c-0.2,0.2-0.5,0.5-0.7,0.7L473.3,1035.9z
		 M475.8,1036.7c0.2,0.2,0.4,0.6,0.4,0.9c0,0.3-0.1,0.6-0.4,0.9l-0.9-0.9L475.8,1036.7z M472.1,1039.7l-0.9-0.9l3.4-3.4l0.9,0.9
		L472.1,1039.7z M473.3,1040.9l-0.8-0.8l0.8-0.8l0.8,0.8L473.3,1040.9z M475.4,1041.3l-3.4,3.3l-0.8-0.8l3.4-3.4L475.4,1041.3z
		 M476.2,1042.5c0,0.3-0.1,0.6-0.4,0.9l-0.9-0.9l0.9-0.9C476.1,1041.9,476.2,1042.2,476.2,1042.5z M470.8,1053.4
		c-0.2-0.2-0.4-0.5-0.4-0.9c0-0.3,0.1-0.6,0.3-0.8c0,0,0,0,0,0c0,0,0,0,0,0l0.8,0.8L470.8,1053.4z M470.9,1073.2L470.9,1073.2
		c-0.3-0.2-0.5-0.5-0.4-0.9c0-0.3,0.1-0.5,0.3-0.7c0,0,0.1-0.1,0.1-0.1c0,0,0.1,0.1,0.1,0.1l0.8,0.8
		C471.5,1072.7,471.2,1072.9,470.9,1073.2z M470.8,1083.2c-0.2-0.2-0.4-0.5-0.4-0.9c0-0.3,0.1-0.6,0.4-0.9l0.9,0.9L470.8,1083.2z
		 M470.8,1086.5l0.9,0.9c-0.1,0.1-0.3,0.2-0.5,0.2c-0.2,0-0.4-0.2-0.5-0.4C470.6,1086.9,470.7,1086.7,470.8,1086.5z M474.6,1087.7
		C474.6,1087.7,474.6,1087.7,474.6,1087.7c0.1,0.1,0.2,0.1,0.3,0.2c0.3,0.2,0.6,0.2,1,0.1c0.3-0.2,0.6-0.5,0.7-0.8
		c0.1-0.4-0.1-0.7-0.4-1.1c-0.8-0.8-1.6-1.6-2.4-2.4c0,0,0,0,0,0c0,0,0,0,0,0c0.2-0.2,0.4-0.4,0.6-0.6c0.1-0.1,0.2-0.2,0.3-0.3
		c0,0,0,0,0,0c0.2,0.2,0.5,0.5,0.7,0.7c0.5,0.5,1,1,1.6,1.6c0.4,0.4,0.7,0.9,0.8,1.5c0.1,0.5,0.1,0.8-0.1,1.1
		c-0.2,0.5-0.5,0.9-1,1.3c-0.3,0.2-0.7,0.3-1.1,0.3c-0.5,0-0.9,0-1.3-0.3c-0.2-0.1-0.4-0.2-0.5-0.4L474.6,1087.7z M476.2,1083.6
		C476.2,1083.6,476.2,1083.6,476.2,1083.6c0.1-0.2,0.2-0.3,0.3-0.4c0.1-0.3,0.2-0.6,0.2-0.8c0-0.4-0.1-0.8-0.4-1.1
		c-0.3-0.4-0.7-0.7-1-1c-0.1-0.1-0.3-0.3-0.4-0.4l-1.1-1.1l0.9-0.9c0.2,0.2,0.4,0.4,0.6,0.6c0.5,0.5,1,1,1.5,1.5
		c0.4,0.4,0.6,0.7,0.8,1.1c0.1,0.3,0.2,0.5,0.2,0.8l0,0.1c0,0.2,0,0.5,0,0.7c0,0.1,0,0.2,0,0.3c0,0.6-0.2,1.1-0.5,1.5
		c-0.1,0.1-0.1,0.1-0.2,0.2L476.2,1083.6z M476.2,1068.7C476.2,1068.6,476.2,1068.6,476.2,1068.7c0.1-0.2,0.2-0.3,0.3-0.4
		c0.2-0.3,0.2-0.6,0.2-1c0-0.5-0.3-0.9-0.6-1.2c-0.3-0.3-0.6-0.6-1-1c-0.5-0.5-0.9-0.9-1.4-1.4c0,0,0,0,0,0c0,0,0,0,0,0
		c0.2-0.2,0.5-0.5,0.7-0.7c0.1-0.1,0.1-0.1,0.2-0.2c0,0,0,0,0,0l0.6,0.6c0.6,0.6,1.1,1.1,1.7,1.7c0.5,0.5,0.8,1,0.8,1.6
		c0.1,0.4,0.1,0.8,0,1.3c0,0.5-0.2,0.9-0.5,1.2c-0.1,0.1-0.1,0.2-0.2,0.3L476.2,1068.7z M477,1064.5c-0.1-0.1-0.2-0.2-0.4-0.4
		c-0.1-0.1-0.3-0.2-0.4-0.4l-0.1-0.1c0.2-0.2,0.4-0.5,0.5-0.9c0.1-0.6,0-1.1-0.4-1.5c-0.6-0.6-1.2-1.2-1.8-1.9
		c-0.2-0.2-0.5-0.5-0.7-0.7l0.9-0.9c0.2,0.2,0.3,0.3,0.5,0.5c0.5,0.5,1.1,1.1,1.6,1.6c0.2,0.2,0.5,0.5,0.6,0.8
		c0.2,0.4,0.4,0.8,0.4,1.1c0,0.2,0,0.5,0,0.7c0,0.1,0,0.2,0,0.3C477.8,1063.4,477.6,1064,477,1064.5L477,1064.5z M477.1,1059.6
		l-0.9-0.9c0.2-0.2,0.3-0.4,0.4-0.7c0.1-0.4,0.1-0.8,0-1.2c-0.1-0.3-0.4-0.6-0.6-0.8l0,0c-0.2-0.2-0.4-0.4-0.6-0.6l-0.1-0.1
		c-0.5-0.5-1-1-1.5-1.5c0,0,0,0,0,0c0,0,0,0,0,0c0.2-0.2,0.5-0.5,0.7-0.7c0.1-0.1,0.1-0.1,0.2-0.2l0.6,0.6c0.6,0.6,1.1,1.1,1.7,1.7
		c0.5,0.5,0.8,1,0.9,1.6c0.1,0.4,0.1,0.8,0,1.2c0,0.4-0.1,0.7-0.3,1C477.3,1059.2,477.2,1059.4,477.1,1059.6
		C477.1,1059.5,477.1,1059.6,477.1,1059.6z M476.2,1033.8c0.2-0.2,0.3-0.4,0.3-0.6c0.1-0.3,0-0.6-0.2-0.9c-0.2-0.3-0.5-0.4-0.8-0.5
		c-0.3,0-0.6,0-0.8,0.2c-0.3,0.3-0.6,0.5-0.9,0.8c-0.4,0.4-0.9,0.9-1.3,1.3c-0.2,0.2-0.3,0.3-0.5,0.5l-0.9-0.9
		c0.3-0.3,0.6-0.6,0.9-0.9c0.5-0.5,1-1,1.5-1.5c0.4-0.4,0.8-0.6,1.3-0.7c0.4-0.1,0.8-0.1,1.3,0c0.5,0.2,0.9,0.5,1.2,1
		c0.2,0.3,0.3,0.7,0.3,1c0,0.1,0,0.2,0,0.3c0,0.1,0,0.1,0,0.2c0,0.1,0,0.2-0.1,0.4c-0.1,0.3-0.2,0.6-0.5,0.9L476.2,1033.8z
		 M471.4,1030.7c0.1,0,0.2,0,0.3,0c0.3,0,0.6,0.1,1,0.3c0.1,0.1,0.2,0.1,0.3,0.2c0,0,0,0,0,0l-0.9,0.9c-0.1-0.1-0.3-0.2-0.5-0.3
		c-0.4-0.1-0.7,0-1,0.2c-0.3,0.3-0.4,0.6-0.4,0.9c0,0.2,0.1,0.5,0.3,0.7c0.2,0.2,0.3,0.4,0.5,0.5c0.8,0.8,1.4,1.4,2,2c0,0,0,0,0,0
		c0,0,0,0,0,0c-0.2,0.2-0.5,0.5-0.7,0.7c-0.1,0.1-0.1,0.1-0.2,0.2c0,0,0,0,0,0c-0.2-0.2-0.4-0.4-0.6-0.6c-0.5-0.5-1-1-1.5-1.5
		c-0.3-0.3-0.4-0.5-0.6-0.7c-0.2-0.3-0.3-0.6-0.3-1c0-0.2,0-0.3,0-0.5c0-0.3,0-0.5,0.1-0.7c0.1-0.2,0.2-0.4,0.3-0.6
		c0.4-0.5,0.9-0.8,1.4-0.8C471,1030.7,471.2,1030.7,471.4,1030.7z M470.5,1041.3C470.5,1041.3,470.4,1041.3,470.5,1041.3
		c-0.1,0.2-0.2,0.3-0.3,0.4c-0.3,0.6-0.3,1.2,0.1,1.8c0.1,0.1,0.2,0.2,0.3,0.4c0.4,0.4,0.8,0.8,1.2,1.2c0.5,0.5,0.9,0.8,1.2,1.2
		c0,0,0,0,0,0c-0.2,0.2-0.5,0.5-0.7,0.7l-0.2,0.2c0,0,0,0,0,0l-0.6-0.6c-0.6-0.6-1.2-1.2-1.7-1.7c-0.4-0.4-0.7-1-0.8-1.6
		c0-0.3-0.1-0.5-0.1-0.8c0-0.4,0.1-0.9,0.2-1.2c0.1-0.3,0.3-0.6,0.5-0.8L470.5,1041.3z M470.5,1046.2c0,0-0.1,0.1-0.1,0.1
		c-0.1,0.2-0.2,0.3-0.3,0.5c-0.1,0.1-0.1,0.3-0.1,0.5c0,0.1,0,0.2,0,0.3c0.1,0.6,0.4,1,0.7,1.3c0.5,0.5,1,1,1.5,1.5
		c0.2,0.2,0.5,0.5,0.7,0.7c0,0,0,0,0,0l-0.9,0.9l-0.6-0.6c-0.6-0.6-1.1-1.1-1.7-1.7c-0.3-0.3-0.5-0.6-0.7-1
		c-0.2-0.3-0.2-0.7-0.3-1.1c0-0.1,0-0.3,0-0.4c0-0.1,0-0.2,0-0.3c0-0.6,0.2-1.1,0.5-1.5c0.1-0.1,0.1-0.1,0.2-0.2L470.5,1046.2z
		 M470.5,1061.2C470.5,1061.2,470.4,1061.2,470.5,1061.2c-0.1,0.2-0.2,0.3-0.3,0.4c-0.3,0.6-0.3,1.2,0.1,1.8
		c0.1,0.1,0.2,0.2,0.3,0.4c0.4,0.4,0.8,0.8,1.2,1.2c0.4,0.4,0.8,0.8,1.2,1.2c-0.2,0.2-0.5,0.5-0.7,0.7c-0.1,0.1-0.1,0.1-0.2,0.2
		c0,0,0,0,0,0c-0.2-0.2-0.4-0.4-0.5-0.5c-0.5-0.5-1.1-1.1-1.6-1.6c-0.3-0.3-0.6-0.6-0.8-1c-0.1-0.3-0.2-0.6-0.3-0.9
		c0-0.2-0.1-0.5-0.1-0.7c0-0.8,0.2-1.3,0.5-1.8c0.1-0.1,0.1-0.2,0.2-0.3L470.5,1061.2z M470.5,1086.1c-0.1,0.1-0.3,0.3-0.3,0.6
		c0,0.1,0,0.2,0,0.3c0,0.3,0.1,0.6,0.4,0.8c0.2,0.2,0.4,0.3,0.7,0.3c0.3,0,0.6-0.1,0.9-0.4c0.7-0.7,1.3-1.3,2-2l0.5-0.5c0,0,0,0,0,0
		l0.9,0.9c-0.2,0.2-0.4,0.4-0.6,0.6c-0.6,0.6-1.2,1.2-1.8,1.8c-0.3,0.3-0.8,0.5-1.3,0.6c0,0-0.1,0-0.1,0c-0.2,0-0.3,0-0.4,0
		c-0.4,0-0.8-0.1-1.1-0.4c-0.5-0.4-0.8-0.8-0.9-1.3c0-0.2-0.1-0.3-0.1-0.5c0-0.1,0-0.2,0-0.4c0-0.3,0.1-0.6,0.2-0.9
		c0.1-0.2,0.2-0.3,0.3-0.5c0,0,0,0,0-0.1L470.5,1086.1z"/>
	<g id="NUyVfa.tif">
		<g>
			<path fill="#8B8B8B" d="M489.1,999c-0.1,0.3-0.1,0.5-0.2,0.8c-0.2,1.1-0.8,2.1-1.6,2.9c-1,1-2,2-3,3c1,0.9,1.6,1.9,1.4,3.3
				c-0.1,0.8-0.5,1.5-1.1,2c-1.4,1.2-3.2,1.1-4.9-0.5c-2.1,2.1-4.1,4.2-6.2,6.2c-2.1-2.2-4.2-4.2-6.3-6.3c-0.9,1-1.9,1.6-3.2,1.5
				c-0.8-0.1-1.5-0.4-2.1-1.1c-1.3-1.4-1.1-3.2,0.6-5.2c-0.4-0.3-0.8-0.6-1.2-1c-0.6-0.6-1.2-1.2-1.8-1.8c-1-1-1.6-2.1-1.7-3.5
				c0-0.1-0.1-0.2-0.1-0.3c0-0.2,0-0.4,0-0.6c0-0.1,0.1-0.2,0.1-0.3c0.6-4.1,4.7-6.2,8.3-4.2c0.3,0.2,0.5,0.1,0.7,0
				c1.8-1,3.7-1,5.5,0c0.4,0.2,0.7,0.5,1.1,0.7c0.1,0,0.1-0.1,0.2-0.1c2-1.6,4.2-1.8,6.5-0.6c0.3,0.2,0.5,0.1,0.7-0.1
				c3.3-1.8,7.3,0,8.1,3.6c0.1,0.3,0.1,0.7,0.2,1C489.1,998.7,489.1,998.9,489.1,999z M465.4,1002.5c-0.8-0.9-1.3-2-1.5-3.2
				c-0.1-1.2,0.1-2.4,0.8-3.5c-1.3-0.8-3.1-0.4-4.1,0.7c-1,1.2-1.1,3.1,0,4.2c1,1.1,2.2,2.2,3.3,3.2
				C464.4,1003.6,464.9,1003.1,465.4,1002.5z M482.7,1004.1c1.1-1.1,2.2-2.1,3.2-3.2c0.8-0.9,1-1.9,0.7-3.1c-0.7-2.4-3.4-2.9-4.7-2
				c1.3,2.4,1,4.7-0.7,6.7C481.8,1003.1,482.2,1003.6,482.7,1004.1z M469.8,998.2c-1.1-1.1-2.1-2.2-3.2-3.2c-1.9-1.8-4.8-1.7-6.7,0
				c-1.9,1.7-2.2,4.7-0.6,6.7c1.1,1.3,2.4,2.3,3.6,3.4c0,0.1-0.1,0.1-0.1,0.2c0.2-0.2,0.5-0.5,0.8-0.9c-0.2-0.1-0.4-0.2-0.5-0.3
				c-0.9-0.9-1.9-1.8-2.8-2.8c-1.9-2.1-1-5.5,1.8-6.3c1.5-0.4,2.8,0,3.9,1c1,1,2,2,3,3C469.2,998.7,469.5,998.5,469.8,998.2z
				 M468.8,1008.8c1.5,1.5,3.1,3.1,4.6,4.6c1.5-1.5,3-3,4.5-4.5c-0.4-0.5-0.9-1-1.5-1.6c-1,1-2,2.1-3.1,3.2c-1-1-2.1-2.1-3-3
				C469.7,1007.9,469.2,1008.4,468.8,1008.8z M480.7,1008.3c2.3-2.2,4.6-4.3,6.7-6.6c1.4-1.5,1.4-3.8,0.4-5.5c-1-1.7-3-2.7-5-2.4
				c-0.7,0.1-1.4,0.3-2,0.8c0.3,0.3,0.5,0.5,0.7,0.7c0.6-0.1,1.2-0.3,1.8-0.4c1.6-0.1,3.1,0.8,3.7,2.2c0.7,1.5,0.5,3-0.7,4.2
				c-1,1.1-2.2,2.2-3.3,3.3c-1,1-2,2-3,3C480.3,1007.9,480.5,1008.2,480.7,1008.3z M464.4,1006.8c3,3,6,6,8.9,8.9
				c1.9-1.9,3.8-3.8,5.8-5.7c-0.2-0.2-0.4-0.5-0.8-0.8c-1.7,1.7-3.4,3.4-5.1,5.2c-2.7-2.7-5.4-5.5-8.2-8.2
				C464.8,1006.4,464.6,1006.6,464.4,1006.8z M480.8,1002.2c1.9-1.7,1.9-5.1-0.1-7c-1.9-1.9-5.3-1.9-6.9-0.1
				c0.2,0.3,0.5,0.5,0.7,0.8c2.1-1.7,4.2-1,5.3,0c0.7,0.6,1.1,1.4,1.2,2.3c0.2,1.2-0.2,2.3-1,3.2
				C480.3,1001.7,480.5,1001.9,480.8,1002.2z M476.9,1006.9c1.2,1.2,2.4,2.4,3.5,3.5c1.2,1.2,3.1,1.1,4.1-0.1
				c1.1-1.3,0.8-3.1-0.6-4.1c-0.3,0.2-0.5,0.5-0.8,0.7c0.1,0.1,0.2,0.2,0.3,0.3c0.8,0.8,0.8,1.8,0.1,2.5c-0.7,0.7-1.7,0.6-2.4-0.2
				c-1-1-2.1-2.1-3.1-3.1c-0.1-0.1-0.2-0.2-0.4-0.3C477.4,1006.4,477.2,1006.6,476.9,1006.9z M465.9,1003c-1.3,1.3-2.5,2.4-3.7,3.7
				c-0.4,0.4-0.6,1.1-0.7,1.6c-0.2,1.2,0.6,2.3,1.8,2.8c1.2,0.5,2.4,0.1,3.3-1.1c-0.2-0.3-0.5-0.5-0.8-0.8c-0.2,0.2-0.3,0.4-0.4,0.5
				c-0.5,0.5-1.1,0.6-1.7,0.4c-0.6-0.2-1-0.7-1.1-1.3c-0.1-0.6,0.2-1.1,0.6-1.5c1-1,2-2,3-3c0.1-0.1,0.3-0.3,0.3-0.4
				C466.3,1003.5,466.1,1003.3,465.9,1003z M479.2,1003.7c-0.2-0.2-0.5-0.5-0.8-0.8c-1.7,1.7-3.4,3.4-5.1,5.2
				c-0.6-0.6-1.2-1.3-1.7-1.9c-0.3,0.3-0.6,0.5-0.8,0.7c0.9,0.9,1.8,1.8,2.7,2.7C475.2,1007.6,477.2,1005.7,479.2,1003.7z
				 M469.8,1004.5c-1-1-2-2-3-3c-1.1-1.1-1.5-2.5-1-4c0.2-0.8,0.2-0.9-0.6-1.3c-1.1,1.6-1,4,0.3,5.6c1.1,1.2,2.3,2.3,3.5,3.4
				C469.2,1005,469.5,1004.8,469.8,1004.5z M475.2,999c0.3-0.3,0.6-0.5,0.9-0.7c-1-1-1.9-1.9-2.8-2.8c-0.4-0.4-0.8-0.7-1.2-1
				c-1.6-1-3.9-1-5.2,0.1c0.2,0.2,0.4,0.4,0.7,0.5c0.1,0.1,0.3,0.1,0.4,0.1c1.9-0.8,3.4-0.2,4.8,1.2
				C473.5,997.3,474.4,998.1,475.2,999z M479.3,996.1c-1.8,1.8-3.6,3.6-5.4,5.4c0.2,0.2,0.4,0.4,0.6,0.6c1.8-1.8,3.5-3.5,5.4-5.4
				C479.7,996.5,479.4,996.2,479.3,996.1z M476,1004.6c-1.6-1.6-3.1-3.1-4.7-4.7c-0.2,0.2-0.4,0.4-0.6,0.6c1.6,1.6,3.1,3.1,4.7,4.7
				C475.5,1005,475.8,1004.8,476,1004.6z M468.1,1008.4c1.6-1.6,3.2-3.1,4.6-4.6c-0.2-0.2-0.4-0.5-0.5-0.6c-1.5,1.5-3.1,3.1-4.7,4.7
				C467.7,1008,468,1008.2,468.1,1008.4z M472.2,996.8c-1.6,1.6-3.1,3.1-4.6,4.6c0.2,0.2,0.4,0.5,0.6,0.7c1.5-1.5,3.1-3.1,4.6-4.6
				C472.6,997.2,472.4,997,472.2,996.8z M482.3,1004.7c-1.6-1.6-3.1-3.1-4.6-4.6c-0.2,0.2-0.4,0.4-0.6,0.6c1.5,1.5,3.1,3.1,4.6,4.7
				C481.9,1005,482.1,1004.8,482.3,1004.7z M471.7,996.3c-1-1-2.7-1.2-3.5-0.6c0.7,0.7,1.4,1.4,2,2
				C470.7,997.3,471.2,996.8,471.7,996.3z M476.4,997.7c0.7-0.7,1.3-1.4,2-2c-1.1-0.5-2.5-0.3-3.5,0.6
				C475.5,996.8,476,997.3,476.4,997.7z M478.2,999.4c0.5,0.5,1,1,1.5,1.5c0.9-1,1.1-2.4,0.5-3.5
				C479.5,998.1,478.8,998.8,478.2,999.4z M468.5,999.5c-0.7-0.7-1.4-1.4-2-2c-0.5,1.1-0.3,2.5,0.6,3.5
				C467.5,1000.4,468,999.9,468.5,999.5z M475,1002.5c0.5,0.5,1,1,1.4,1.5c0.5-0.5,1-0.9,1.4-1.4c-0.5-0.5-1-1-1.5-1.5
				C476,1001.6,475.5,1002.1,475,1002.5z M468.8,1002.5c0.5,0.5,1,1,1.4,1.5c0.5-0.5,1-1,1.5-1.4c-0.5-0.5-1-1-1.5-1.5
				C469.7,1001.6,469.2,1002.1,468.8,1002.5z M467,1007.2c0.5-0.5,1.1-1,1.5-1.4c-0.5-0.5-1-1-1.4-1.5c-0.5,0.5-1,1-1.5,1.5
				C466.1,1006.2,466.5,1006.7,467,1007.2z M474.8,1005.8c-0.5-0.5-1-1-1.4-1.5c-0.5,0.5-1,1-1.4,1.4c0.5,0.5,1,1,1.5,1.5
				C473.8,1006.7,474.3,1006.2,474.8,1005.8z M478.2,1005.7c0.5,0.5,1,1,1.4,1.5c0.5-0.5,1-1,1.5-1.4c-0.5-0.5-1-1-1.5-1.5
				C479.1,1004.7,478.6,1005.2,478.2,1005.7z M473.4,998c-0.5,0.5-1,1-1.5,1.4c0.5,0.5,1,1,1.4,1.4c0.5-0.5,1-1,1.5-1.4
				C474.3,998.9,473.8,998.4,473.4,998z M465.4,1008.9c-0.5-0.5-1-1-1.5-1.5c-0.8,0.7-1,1.4-0.4,1.9
				C464,1009.8,464.7,1009.7,465.4,1008.9z M482.9,1007.4c-0.5,0.5-1.1,1-1.6,1.5c0.7,0.8,1.4,0.9,1.9,0.3
				C483.7,1008.7,483.6,1008.1,482.9,1007.4z"/>
		</g>
	</g>
	<g>
		<path fill="#8B8B8B" d="M472.2,830.6c-3,0-5.5,2.4-5.5,5.5s2.4,5.5,5.5,5.5s5.5-2.4,5.5-5.5S475.2,830.6,472.2,830.6z
			 M472.2,841.1c-2.7,0-5-2.2-5-5c0-2.7,2.2-5,5-5c2.7,0,5,2.2,5,5C477.2,838.8,475,841.1,472.2,841.1z"/>
		<path fill="#8B8B8B" d="M472.2,829.4c-3.7,0-6.7,3-6.7,6.7c0,3.7,3,6.7,6.7,6.7s6.7-3,6.7-6.7
			C478.9,832.4,475.9,829.4,472.2,829.4z M472.2,842.3c-3.4,0-6.2-2.8-6.2-6.2c0-3.4,2.8-6.2,6.2-6.2s6.2,2.8,6.2,6.2
			C478.4,839.5,475.7,842.3,472.2,842.3z"/>
	</g>
	<g>
		<line fill="none" stroke="#8B8B8B" stroke-width="0.75" stroke-miterlimit="10" x1="505.7" y1="836" x2="632.2" y2="836"/>
		<line fill="none" stroke="#8B8B8B" stroke-width="0.75" stroke-miterlimit="10" x1="505.7" y1="834.2" x2="632.2" y2="834.2"/>
	</g>
	<g>
		<line fill="none" stroke="#8B8B8B" stroke-width="0.75" stroke-miterlimit="10" x1="311.5" y1="836" x2="438" y2="836"/>
		<line fill="none" stroke="#8B8B8B" stroke-width="0.75" stroke-miterlimit="10" x1="311.5" y1="834.2" x2="438" y2="834.2"/>
	</g>
	<g>
		<line fill="none" stroke="#8B8B8B" stroke-width="0.75" stroke-miterlimit="10" x1="568.9" y1="965.3" x2="632.2" y2="965.3"/>
		<line fill="none" stroke="#8B8B8B" stroke-width="0.75" stroke-miterlimit="10" x1="568.9" y1="963.6" x2="632.2" y2="963.6"/>
	</g>
	<g>
		<line fill="none" stroke="#8B8B8B" stroke-width="0.75" stroke-miterlimit="10" x1="311.5" y1="965.3" x2="388.8" y2="965.3"/>
		<line fill="none" stroke="#8B8B8B" stroke-width="0.75" stroke-miterlimit="10" x1="311.5" y1="963.6" x2="388.8" y2="963.6"/>
	</g>
	<g>
		<path fill="#8B8B8B" d="M496.7,814.1c-1.8-0.1-3.6-0.3-5.3-0.4c-0.3,0-0.7,0.1-1,0.2c-6,3.7-12.6,5.3-19.6,5.1
			c-5.7-0.2-11.1-1.8-16-4.8c-0.8-0.5-1.5-0.6-2.4-0.5c-8.1,0.8-15.9-0.4-23.3-3.8c-0.4-0.2-0.6-0.5-0.6-0.9
			c0.8-8.4,3.7-16,8.7-22.7c0.2-0.3,0.3-0.7,0.3-1c-0.2-6.1,1.2-11.8,4-17.2c2.2-4.2,5.1-7.8,8.9-10.7c1.7-1.3,3.6-2.4,5.3-3.6
			c0.2-0.2,0.5-0.4,0.6-0.7c3-6.9,7.4-12.8,13.3-17.4c0.7-0.5,1.3-1,2-1.5c0.4-0.3,0.7-0.3,1.1,0c5.9,4.1,10.5,9.4,13.8,15.8
			c0.3,0.5,0.6,0.9,0.7,1.5c0.5,1.6,1.6,2.5,3,3.4c7.4,4.5,12.4,11,15,19.2c1.2,3.5,1.7,7.2,1.6,11c0,0.6,0.1,1.1,0.5,1.6
			c4.5,6.1,7.3,12.8,8.3,20.3c0.1,0.7,0.2,1.4,0.3,2.1c0.1,0.5-0.1,0.7-0.5,1c-4.1,1.9-8.4,3.2-12.9,3.7
			C500.5,813.9,498.6,813.9,496.7,814.1z M485.1,752c-0.1-0.2-0.2-0.4-0.3-0.6c-2.9-5.8-7-10.6-12.2-14.6c-0.4-0.3-0.6-0.2-0.9,0
			c-11.2,8.9-16.8,20.4-16.6,34.7c0,0.2,0,0.4,0.1,0.7c1.4-0.5,2.7-0.9,4-1.4c0.1-0.1,0.2-0.4,0.3-0.6c0.1-1.5,0.1-3,0.3-4.5
			c0.9-7.4,3.8-14,8.7-19.7c1.2-1.4,2.5-2.5,3.8-3.8c2.6,2.3,4.8,4.8,6.6,7.7c0.2,0.3,0.4,0.6,0.6,0.6
			C481.3,751,483.2,751.5,485.1,752z M437.8,789.2c-0.3,0.5-0.6,0.8-0.8,1.2c-3.4,5.3-5.4,11.1-6.2,17.4c-0.1,0.5,0.1,0.6,0.5,0.8
			c3.8,1.6,7.8,2.7,12,3.1c7.7,0.7,15.2-0.5,22.2-3.8c1.6-0.8,3.2-1.7,4.8-2.6c-1.1-1-2.1-1.9-3.2-2.7c-0.2-0.1-0.6-0.1-0.8,0
			c-5.1,2.9-10.6,4.6-16.5,4.9c-4.7,0.3-9.2-0.3-13.7-1.7c-0.5-0.1-0.5-0.4-0.4-0.8c0.6-2.7,1.4-5.4,2.7-7.9
			c0.7-1.2,0.9-2.4,0.3-3.7c-0.2-0.3-0.2-0.7-0.3-1C438.2,791.3,438,790.3,437.8,789.2z M491.2,775.5c-0.3,1.5-0.5,2.7-0.7,3.9
			c-0.1,0.6,0,0.8,0.5,1.1c9.3,5.6,15.2,13.7,17.7,24.3c0.1,0.5,0,0.8-0.5,0.9c-2.8,0.8-5.7,1.5-8.7,1.6c-0.9,0-1.7,0.3-2.3,1.1
			c-0.8,0.9-1.8,1.7-2.6,2.5c-0.3,0.2-0.5,0.5-0.9,0.8c0.4,0.1,0.6,0.1,0.8,0.1c6.1,0.3,12-0.6,17.7-2.9c1.5-0.6,1.6-0.6,1.3-2.2
			c-1.8-11.3-7.2-20.4-16.3-27.3C495.3,778,493.3,776.8,491.2,775.5z M499.7,790.8c-0.1,0-0.2,0.1-0.2,0.1
			c-0.9,3.8-2.5,7.2-4.9,10.3c-6.7,9.1-18.8,13.3-29.6,10.3c-1.1-0.3-2.1-0.3-3.3,0.1c-1.5,0.6-3.1,1-4.8,1.5
			c0.3,0.2,0.5,0.3,0.7,0.4c3.9,1.9,8,3,12.3,3.3c5.8,0.4,11.2-0.7,16.4-3.3c5.1-2.5,9.3-6.1,12.5-10.8c1.5-2.1,2.7-4.4,3.5-6.8
			c0.1-0.2,0.2-0.6,0.1-0.7C501.7,793.7,500.7,792.3,499.7,790.8z M452.8,805c0-0.1,0-0.2,0-0.3c-0.1-0.1-0.3-0.2-0.4-0.3
			c-2.7-2.7-4.9-5.7-6.3-9.2c-2.3-5.7-2.8-11.6-1.3-17.6c1.3-5.2,3.8-9.6,7.6-13.3c0.6-0.6,1-1.2,1.1-2.1c0.3-1.8,0.8-3.5,1.2-5.3
			c-0.4,0.2-0.7,0.4-0.9,0.6c-3,2.1-5.7,4.7-7.9,7.7c-4.9,6.7-6.9,14.2-6.1,22.5c0.6,6.4,3.1,12.1,7.1,17.2c0.2,0.2,0.5,0.5,0.7,0.5
			C449.4,805.2,451.1,805.1,452.8,805z M464,757.2c0.1,0.1,0.1,0.1,0.2,0.2c4.1-1.2,8.3-1.5,12.6-0.8c6.1,1,11.3,3.7,15.6,8.2
			c3.6,3.7,6,8.1,7.2,13.1c0.1,0.4,0.4,0.8,0.7,1.1c1.2,1.2,2.5,2.4,3.8,3.6c0.2,0.2,0.4,0.3,0.6,0.6c-0.1-3.2-0.7-6.2-1.7-9.1
			c-2.1-6.2-5.6-11.2-10.7-15.3c-4.8-3.8-10.3-6-16.3-6.8c-2.9-0.4-5.8-0.3-8.8,0.2c-0.3,0-0.7,0.2-0.8,0.4
			C465.6,754.2,464.8,755.7,464,757.2z M479.2,800.6c2.9,1.7,5.9,2.9,9.1,3.7c0.2,0.1,0.6-0.1,0.8-0.3c4.6-3.9,7.4-8.9,8.5-14.7
			c0.1-0.3-0.1-0.7-0.3-0.9c-0.7-0.8-1.5-1.6-2.3-2.2c-1.7-1.3-3.4-2.5-5.2-3.9C487.7,789.3,484.2,795.3,479.2,800.6z M454.6,782.3
			c-2.8,1.6-5.2,3.5-7.5,5.7c-0.4,0.4-0.5,0.8-0.4,1.3c1.2,5.8,4,10.6,8.4,14.5c0.4,0.3,0.7,0.4,1.2,0.3c2.8-0.7,5.5-1.8,8-3.2
			c0.2-0.1,0.5-0.3,0.7-0.5C460.1,795.3,456.7,789.3,454.6,782.3z M461.6,770.2c7.1-1.7,14-1.7,21.1,0c0-0.4,0-0.6,0-0.9
			c-0.3-2.4-0.7-4.8-0.9-7.2c-0.2-1.5-0.9-2.2-2.4-2.6c-5.3-1.4-10.5-1.4-15.7,0.4c-0.5,0.2-0.7,0.4-0.8,0.8c-0.4,1.8-0.8,3.5-1,5.3
			C461.7,767.4,461.7,768.7,461.6,770.2z M481.6,779c-4.9-1.8-15.6-1.7-18.8,0.1c1.7,6.2,4.8,11.6,9.4,16.2
			C476.8,790.6,479.9,785.3,481.6,779z M477.2,799.4c0.2-0.2,0.3-0.2,0.4-0.3c5.2-5.5,8.8-11.8,10.5-19.2c1.2-4.9,1.5-9.7,0.8-14.7
			c0-0.3-0.1-0.6-0.3-0.8c-1.4-1.3-3-2.3-4.8-3.2c2.8,13.6-0.5,25.4-10.1,35.5C475,797.7,476.1,798.5,477.2,799.4z M486.4,806.2
			c-13.2-4.6-21.8-13.3-25.8-26.7c-1.3,0.6-2.6,1.1-4.1,1.7c0.5,1.4,0.9,2.8,1.5,4.1c4.3,10.7,11.9,18.4,22.5,23.1
			c0.2,0.1,0.6,0.2,0.8,0.1C483,807.9,484.7,807,486.4,806.2z M482.7,772.5c-0.2-0.1-0.2-0.1-0.3-0.1c-0.2-0.1-0.4-0.1-0.6-0.2
			c-7.3-1.7-14.6-1.5-21.8,0.7c-4.2,1.3-8,3.2-11.7,5.6c-1.3,0.9-2,1.9-2,3.4c0,1.3,0,2.5,0,3.8c10.4-9.2,22.3-12.2,35.8-9
			C482.3,775.2,482.5,773.9,482.7,772.5z M477.6,809.7c-1.7-1-3.3-1.9-4.9-2.9c-0.4-0.3-0.7-0.2-1,0c-1.4,0.8-2.9,1.7-4.3,2.5
			c-0.2,0.1-0.3,0.2-0.5,0.4C470,810.5,474.1,810.5,477.6,809.7z M491.4,767c0,2.1,0,4.1,0,6.1c0,0.1,0.1,0.3,0.3,0.4
			c1.7,0.9,3.4,1.9,5.1,2.9C495.7,772.9,493.9,769.8,491.4,767z M453,767c-2.5,2.9-4.3,5.9-5.4,9.4c1.8-1,3.5-2,5.2-2.9
			c0.1-0.1,0.3-0.3,0.3-0.4C453,771,453,769.1,453,767z M506.2,804.1c-0.6-2.1-1.2-4.1-2.1-5.9c-1.3,2.3-2.6,4.6-4,7
			C502.1,804.8,504.1,804.5,506.2,804.1z M440.2,798.1c-0.7,2-1.4,3.9-2.1,6c2.2,0.4,4.2,0.7,6.2,1.1
			C442.9,802.8,441.6,800.5,440.2,798.1z M468.1,749.8c2.8,0,5.4,0,8.2,0c-1.4-1.6-2.7-3.2-4.1-4.8
			C470.8,746.6,469.5,748.2,468.1,749.8z"/>
	</g>
	<text transform="matrix(1 0 0 1 401.9777 969.8671)" fill="#8B8B8B" font-family="'HoeflerText-Italic'" font-size="24">let’s pray together</text>
</g>
</svg>
