<?xml version="1.0" encoding="utf-8"?>
<?xml-stylesheet type="text/css" href="../css/svg.css" ?>
<!-- Generator: Adobe Illustrator 18.0.0, SVG Export Plug-In . SVG Version: 6.00 Build 0)  -->
<!DOCTYPE svg PUBLIC "-//W3C//DTD SVG 1.1//EN" "http://www.w3.org/Graphics/SVG/1.1/DTD/svg11.dtd">
<svg version="1.1" id="Layer_1" xmlns="http://www.w3.org/2000/svg" xmlns:xlink="http://www.w3.org/1999/xlink" x="0px" y="0px"
    viewBox="0 0 408.7 356.7" enable-background="new 0 0 408.7 356.7" xml:space="preserve">
  <!--   
  <defs>
   <filter id="drop-shadow">
      <feGaussianBlur in="SourceAlpha" stdDeviation="0"/>
      <feOffset dx="0" dy="0" result="offsetblur"/>
      <feFlood flood-color="rgb(0,0,0,.5)"/>
      <feComposite in2="offsetblur" operator="in"/>
      <feMerge>
        <feMergeNode/>
        <feMergeNode in="SourceGraphic"/>
      </feMerge>
    </filter>
  </defs> -->

	<g id="oratio">
    	<path fill="#FFFFFF" d="M60.1,195.1c-20.3,0-34.8-15-34.8-33.7v-0.2c0-18.5,14.7-33.9,35-33.9s34.8,15,34.8,33.7v0.2
    		C94.9,179.8,80.2,195.1,60.1,195.1z M79.9,161.2c0-11.3-8.2-20.6-19.8-20.6s-19.6,9.2-19.6,20.4v0.2c0,11.3,8.2,20.6,19.8,20.6
    		s19.6-9.2,19.6-20.4V161.2z"/>
            
    	<path fill="#FFFFFF" d="M147.7,194l-14.1-21.1h-11.3V194h-14.4v-65.6h30c15.5,0,24.7,8.2,24.7,21.7v0.2
    		c0,10.5-5.7,17.1-14.1,20.3l16.1,23.3L147.7,194L147.7,194L147.7,194z M147.8,150.8c0-6.2-4.3-9.5-11.3-9.5h-14.4v18.9h14.6
    		c7,0,10.9-3.7,10.9-9.3v-0.2H147.8z"/>
            
    	<path fill="#FFFFFF" d="M224.3,194l-6-14.7h-27.7l-6,14.7h-14.7l28.2-66h13.3l28.2,66H224.3z M204.5,145.3l-8.7,21.2h17.4
    		L204.5,145.3z"/>
            
    	<polygon fill="#FFFFFF" points="270.7,141.7 270.7,194 256.4,194 256.4,141.7 236.5,141.7 236.5,128.4 290.7,128.4 290.7,141.7 
    						"/>
                            
    	<rect x="302.4" y="128.4" fill="#FFFFFF" width="14.4" height="65.6"/>
        
    	<path fill="#FFFFFF" d="M364.9,195.1c-20.3,0-34.8-15-34.8-33.7v-0.2c0-18.5,14.7-33.9,35-33.9s34.8,15,34.8,33.7v0.2
    		C399.9,179.8,385.2,195.1,364.9,195.1z M384.9,161.2c0-11.3-8.2-20.6-19.8-20.6s-19.6,9.2-19.6,20.4v0.2
    		c0,11.3,8.2,20.6,19.8,20.6s19.6-9.2,19.6-20.4V161.2z"/>
	</g>
	<!--<path id="braid" fill="#FFFFFF" d="M202.3,349.4c0.1,0,0.1,0,0.2,0c0.5,0,0.9-0.2,1.3-0.4c0.1-0.1,0.2-0.2,0.3-0.3c0,0,0,0,0.1,0
		c0.1,0.1,0.1,0.1,0.2,0.2c0.3,0.2,0.5,0.4,0.9,0.5c0.2,0.1,0.4,0.1,0.6,0.1c0.1,0,0.1,0,0.2,0c0.3,0,0.6,0,0.9,0
		c0.6-0.1,1.2-0.4,1.6-1c0.3-0.4,0.5-0.9,0.5-1.5l0,0c0-0.1,0-0.3,0-0.4s0-0.2,0-0.2c0-0.3-0.1-0.6-0.2-0.9
		c-0.1-0.2-0.2-0.4-0.4-0.6l-0.1-0.1l0.1-0.1c0.1-0.2,0.3-0.4,0.4-0.6c0.3-0.5,0.3-1,0.4-1.5c0-0.3,0-0.6,0-0.9s-0.1-0.6-0.2-0.8
		c-0.1-0.4-0.3-0.7-0.7-1.1l0.1-0.1c0-0.1,0.1-0.1,0.1-0.2c0.1-0.2,0.2-0.3,0.3-0.5c0.3-0.5,0.3-1,0.3-1.5c0-0.1,0-0.1,0-0.2
		c0-0.4,0-0.7-0.1-0.9c-0.1-0.3-0.1-0.6-0.3-0.9c-0.1-0.2-0.3-0.4-0.4-0.6l-0.1-0.1l0.1-0.1c0.1-0.2,0.3-0.4,0.4-0.6
		c0.3-0.5,0.3-1,0.4-1.5c0-0.4,0-0.8-0.1-1.1c-0.1-0.6-0.3-1.2-0.8-1.7l0,0l0,0l0.1-0.1c0.2-0.2,0.3-0.4,0.5-0.7
		c0.3-0.5,0.3-1,0.3-1.4c0-0.2,0-0.5,0-0.8c0-0.2-0.1-0.5-0.1-0.7c-0.1-0.5-0.4-0.9-0.7-1.3c0,0,0-0.1,0.1-0.1
		c0.1-0.1,0.2-0.3,0.3-0.4c0.3-0.4,0.5-1,0.5-1.7c0-0.3,0-0.7,0-1v-0.2c0-0.4-0.2-0.8-0.4-1.2c-0.1-0.1-0.2-0.3-0.3-0.4
		c0,0,0,0,0-0.1s0.1-0.1,0.1-0.2c0.1-0.2,0.3-0.4,0.4-0.6c0.3-0.5,0.3-1,0.3-1.4c0-0.2,0-0.4,0-0.5s0-0.2,0-0.3
		c0-0.4-0.1-0.8-0.3-1.2c-0.1-0.2-0.3-0.4-0.4-0.6c0-0.1-0.1-0.1-0.1-0.2c0.1-0.1,0.1-0.1,0.2-0.2c0.4-0.5,0.7-1.2,0.7-2
		c0-0.4,0-0.7-0.1-1.1c0-0.4-0.2-0.8-0.4-1.1c-0.1-0.2-0.2-0.3-0.3-0.5l-0.1-0.1c0,0,0,0,0.1-0.1c0-0.1,0.1-0.1,0.1-0.2
		c0.1-0.2,0.3-0.4,0.4-0.6c0.2-0.4,0.3-0.9,0.3-1.4c0-0.3,0-0.6,0-1c0-0.5-0.2-0.9-0.4-1.2c-0.1-0.2-0.2-0.3-0.4-0.5l-0.1-0.1l0,0
		c0.1-0.1,0.1-0.1,0.2-0.2c0.4-0.5,0.7-1.2,0.7-2l0,0c0-0.3,0-0.6-0.1-1c0-0.4-0.2-0.7-0.4-1.1c-0.1-0.2-0.2-0.3-0.3-0.5l-0.1-0.1
		l0,0c0.1-0.1,0.2-0.2,0.3-0.3c0.4-0.5,0.6-1.1,0.6-1.9c0-0.2,0-0.3,0-0.5c0-0.1,0-0.2,0-0.3c0-0.5-0.1-0.8-0.3-1.2
		c-0.1-0.2-0.3-0.4-0.4-0.6c0-0.1-0.1-0.1-0.1-0.2c0,0,0-0.1,0.1-0.1c0.1-0.2,0.2-0.3,0.3-0.5c0.2-0.3,0.3-0.6,0.3-1.1
		c0-0.2,0-0.4,0-0.6c0-0.3,0-0.6-0.1-0.8c-0.2-0.5-0.4-0.9-0.9-1.3c-0.4-0.4-0.9-0.6-1.5-0.6c-0.4,0-0.7,0-1,0.1
		c-0.4,0-0.6,0.2-0.9,0.3c-0.1,0.1-0.3,0.2-0.4,0.3l-0.1,0.1l-0.1-0.1c-0.2-0.2-0.5-0.4-0.8-0.5s-0.6-0.1-0.8-0.1c-0.3,0-0.6,0-1,0
		c-0.7,0.1-1.2,0.5-1.6,1c-0.3,0.4-0.5,0.9-0.5,1.5v0.1c0,0.2,0,0.4,0,0.6c0,0.3,0.1,0.5,0.2,0.8s0.3,0.6,0.5,0.8c0,0,0,0.1-0.1,0.1
		c-0.1,0.1-0.2,0.3-0.3,0.4c-0.3,0.5-0.5,1-0.5,1.7v0.1c0,0.3,0,0.7,0.1,1.1c0,0.4,0.1,0.7,0.3,0.9c0.1,0.2,0.3,0.4,0.4,0.6l0.1,0.1
		l-0.1,0.1c0,0.1-0.1,0.1-0.1,0.2c-0.1,0.2-0.3,0.4-0.4,0.5c-0.2,0.4-0.3,0.8-0.3,1.4l0,0c0,0.2,0,0.5,0,0.7v0.1
		c0,0.3,0.1,0.7,0.2,0.9c0.1,0.3,0.4,0.6,0.6,0.9c0,0,0,0.1-0.1,0.1c-0.1,0.1-0.2,0.3-0.3,0.4c-0.3,0.5-0.5,1-0.5,1.7
		c0,0.4,0,0.7,0.1,1.2c0,0.4,0.1,0.7,0.3,0.9c0.1,0.2,0.3,0.4,0.4,0.6l0.1,0.1c-0.6,0.6-0.9,1.3-0.9,2.3v0.1l0,0c0,0.2,0,0.5,0,0.7
		c0,0.3,0.1,0.5,0.1,0.7c0.1,0.4,0.4,0.8,0.7,1.2c0,0,0,0-0.1,0.1s-0.2,0.3-0.3,0.4c-0.3,0.5-0.5,1-0.5,1.6c0,0.4,0,0.8,0,1.1v0.1
		c0,0.4,0.2,0.8,0.4,1.2c0.1,0.1,0.2,0.3,0.3,0.4c0,0,0,0,0.1,0.1c0,0.1-0.1,0.1-0.1,0.2c-0.1,0.2-0.3,0.4-0.4,0.6
		c-0.2,0.4-0.3,0.8-0.3,1.4c0,0.3,0,0.6,0,0.8v0.1c0,0.3,0.1,0.6,0.2,0.9c0.2,0.3,0.4,0.7,0.6,0.9l-0.1,0.1
		c-0.5,0.5-0.8,1.2-0.8,2.1c0,0.2,0,0.4,0,0.6c0,0.1,0,0.1,0,0.2c0,0.5,0.1,0.8,0.3,1.2c0.1,0.2,0.3,0.4,0.4,0.6
		c0,0.1,0.1,0.1,0.1,0.2c-0.1,0.1-0.1,0.1-0.2,0.2c-0.4,0.4-0.6,1-0.6,1.5c0,0.2,0,0.5,0,0.7c0,0.1,0,0.2,0,0.3
		c0,0.3,0.1,0.6,0.1,0.9c0.1,0.4,0.3,0.8,0.7,1.2c-0.1,0.1-0.1,0.1-0.2,0.2c-0.4,0.5-0.7,1.2-0.7,2c0,0.3,0,0.5,0,0.8v0.1
		c0,0.4,0.1,0.8,0.3,1.1c0.1,0.2,0.3,0.4,0.4,0.7c0,0.1,0.1,0.1,0.1,0.2l0,0c-0.1,0.1-0.2,0.2-0.2,0.3c-0.4,0.5-0.6,1.1-0.6,1.9
		c0,0.3,0,0.6,0,0.9s0.1,0.6,0.2,0.9s0.3,0.6,0.6,0.9c0,0.1-0.1,0.1-0.1,0.2c-0.3,0.3-0.5,0.7-0.5,1c-0.1,0.3-0.1,0.5-0.1,0.9
		c0,0.1,0,0.2,0,0.4c0,0.2,0.1,0.5,0.1,0.7c0.1,0.4,0.4,0.8,0.9,1.2c0.4,0.3,0.9,0.5,1.5,0.5C202.1,349.4,202.2,349.4,202.3,349.4z
		 M200.1,343.8c-0.2-0.3-0.3-0.7-0.3-1v-0.1c0-0.2,0-0.4,0-0.5c0-0.5,0.1-1.2,0.5-1.8c0.1-0.1,0.2-0.2,0.2-0.3
		c0.2,0.2,0.5,0.5,0.7,0.7l0.2,0.2c0,0,0,0-0.1,0.1s-0.2,0.3-0.3,0.4c-0.3,0.6-0.2,1.2,0.1,1.8c0.1,0.1,0.2,0.2,0.3,0.4
		c0.6,0.6,1.1,1.1,1.7,1.7l0.5,0.5c0,0,0.1,0,0.1,0.1l0.1,0.1c-0.3,0.3-0.5,0.5-0.8,0.8l-0.1,0.1c-0.2-0.2-0.4-0.4-0.5-0.5
		c-0.5-0.5-1.1-1.1-1.6-1.6C200.6,344.4,200.3,344.1,200.1,343.8z M199.8,337.2c0-0.1,0-0.2,0-0.2c0-0.3,0-0.6,0.2-0.9
		c0.1-0.3,0.3-0.6,0.5-0.9l0.9,0.9l0,0c-0.1,0.1-0.2,0.2-0.2,0.3c-0.3,0.4-0.3,0.9-0.1,1.5c0.1,0.3,0.2,0.5,0.5,0.7
		c0.5,0.5,1,1,1.5,1.5c0.3,0.3,0.6,0.6,0.8,0.8l-0.9,0.9c-0.2-0.2-0.4-0.4-0.6-0.6c-0.6-0.6-1.2-1.2-1.8-1.8
		c-0.4-0.4-0.7-0.9-0.8-1.5C199.8,337.7,199.8,337.5,199.8,337.2L199.8,337.2z M199.8,332.4L199.8,332.4c0-0.6,0.1-1.1,0.4-1.6
		c0.1-0.2,0.2-0.3,0.3-0.4c0,0,0,0,0-0.1l0.9,0.9l0,0c-0.1,0.1-0.2,0.2-0.3,0.4c-0.3,0.6-0.3,1.2,0.1,1.7c0.1,0.2,0.2,0.3,0.4,0.5
		c0.5,0.5,0.9,0.9,1.5,1.5c0.3,0.3,0.5,0.5,0.8,0.8l0.1,0.1c-0.2,0.2-0.5,0.5-0.7,0.7l-0.2,0.2l0,0c-0.2-0.2-0.4-0.4-0.6-0.6
		c-0.5-0.5-1-1-1.5-1.5c-0.3-0.3-0.6-0.6-0.7-0.9c-0.2-0.3-0.3-0.6-0.3-0.9c0-0.1,0-0.1,0-0.2C199.8,332.7,199.8,332.5,199.8,332.4
		L199.8,332.4z M199.8,327.7c0-0.1,0-0.2,0-0.4c0-0.5,0.1-1.1,0.3-1.5c0.1-0.2,0.2-0.3,0.3-0.5c0,0,0-0.1,0.1-0.1l0.2,0.2
		c0.2,0.3,0.5,0.5,0.7,0.7c0,0,0,0.1-0.1,0.1c-0.1,0.1-0.2,0.2-0.2,0.3c-0.2,0.3-0.2,0.6-0.2,1c0.1,0.6,0.4,0.9,0.7,1.2
		c0.5,0.5,1,1,1.5,1.5c0.3,0.3,0.5,0.5,0.8,0.8l0,0l-0.9,0.9c-0.2-0.2-0.4-0.4-0.6-0.6c-0.6-0.6-1.2-1.2-1.8-1.8
		c-0.4-0.4-0.6-0.8-0.7-1.3C199.9,328.1,199.9,327.9,199.8,327.7C199.8,327.8,199.8,327.8,199.8,327.7L199.8,327.7z M199.8,317.9
		c0-0.1,0-0.1,0-0.2l0,0c0-0.6,0-1.2,0.3-1.7c0.1-0.2,0.2-0.3,0.3-0.5c0,0,0,0,0.1-0.1l0.9,0.9c-0.2,0.2-0.4,0.5-0.5,0.8
		c-0.1,0.6,0,1.1,0.3,1.5c0.1,0.1,0.2,0.2,0.3,0.3c0.6,0.6,1.1,1.1,1.7,1.7l0.7,0.7l-0.9,0.9c-0.3-0.3-0.5-0.5-0.8-0.8
		c-0.5-0.5-1-1-1.5-1.5c-0.4-0.5-0.7-0.9-0.8-1.5C199.9,318.3,199.9,318.2,199.8,317.9C199.8,318.1,199.8,318.1,199.8,317.9
		C199.8,318,199.8,318,199.8,317.9z M199.8,313c0-0.1,0-0.2,0-0.3c0-0.5,0.1-1,0.3-1.5c0.1-0.2,0.2-0.3,0.3-0.5c0,0,0-0.1,0.1-0.1
		l0.9,0.9c0,0.1-0.1,0.1-0.1,0.2c-0.2,0.2-0.3,0.5-0.3,0.8c-0.1,0.5,0,0.9,0.3,1.4c0,0.1,0.1,0.1,0.2,0.2c0.3,0.3,0.7,0.7,1,1
		l0.4,0.4c0.1,0.1,0.2,0.2,0.3,0.3l0.3,0.3c0.2,0.2,0.3,0.3,0.5,0.5c-0.2,0.2-0.5,0.5-0.7,0.7l-0.2,0.2l0,0l-0.4-0.4
		c-0.6-0.6-1.1-1.2-1.7-1.7c-0.4-0.4-0.6-0.7-0.8-1.1c-0.1-0.3-0.2-0.6-0.2-1C199.8,313.1,199.8,313,199.8,313z M199.8,298
		c0-0.1,0-0.3,0-0.4c0-0.6,0.2-1.1,0.5-1.5c0-0.1,0.1-0.1,0.2-0.2l0.9,0.9c-0.2,0.2-0.4,0.4-0.4,0.8c-0.1,0.5,0,1.1,0.3,1.5
		c0.1,0.1,0.2,0.2,0.3,0.3c0.6,0.6,1.1,1.1,1.7,1.7l0.7,0.7l-0.9,0.9c-0.3-0.3-0.5-0.5-0.8-0.8c-0.5-0.5-1-1-1.5-1.5
		c-0.4-0.4-0.7-0.9-0.8-1.3c-0.1-0.2-0.1-0.4-0.1-0.7C199.8,298.3,199.8,298.2,199.8,298z M208.6,298.4c0,0.7-0.2,1.2-0.7,1.7
		c0,0,0,0-0.1,0.1l-0.9-0.9c0.2-0.2,0.3-0.5,0.4-0.8c0.2-0.6,0-1.2-0.4-1.7s-0.9-0.9-1.3-1.3s-0.8-0.8-1.2-1.2l0,0l0,0
		c0.2-0.2,0.5-0.5,0.7-0.7c0.1-0.1,0.1-0.1,0.2-0.2l0,0l0.5,0.5c0.6,0.6,1.2,1.2,1.8,1.8c0.4,0.4,0.7,0.8,0.8,1.3
		c0.1,0.2,0.1,0.4,0.1,0.6S208.6,298.1,208.6,298.4z M208.6,302.5c0,0.2,0,0.3,0,0.5c0,0.4-0.1,0.7-0.1,1c-0.1,0.4-0.3,0.8-0.6,1.1
		l-0.9-0.8c0.2-0.3,0.4-0.5,0.5-0.9c0.1-0.5,0-1-0.3-1.5c-0.1-0.1-0.2-0.2-0.3-0.3c-0.8-0.8-1.5-1.6-2.3-2.3l0.9-0.9l0,0
		c0.1,0.1,0.2,0.2,0.3,0.4c0.1,0.1,0.1,0.1,0.2,0.2l0.1,0.1c0.1,0.1,0.3,0.3,0.4,0.4c0.3,0.3,0.7,0.7,1,1s0.6,0.6,0.8,1
		C208.5,301.8,208.5,302.1,208.6,302.5C208.6,302.4,208.6,302.4,208.6,302.5z M208.6,307.7c0,0.1,0,0.2,0,0.3v0.1
		c0,0.7-0.2,1.3-0.6,1.7c0,0,0,0.1-0.1,0.1L207,309l0,0c0.1-0.1,0.2-0.2,0.2-0.4c0.2-0.3,0.3-0.7,0.2-1c0-0.4-0.2-0.8-0.5-1.1
		c-0.2-0.2-0.3-0.4-0.5-0.5c-0.2-0.2-0.5-0.5-0.7-0.8c-0.4-0.4-0.9-0.9-1.2-1.2c0.2-0.2,0.5-0.5,0.7-0.7c0.1-0.1,0.1-0.1,0.2-0.2
		l0,0l0.3,0.3c0.7,0.7,1.3,1.3,2,2c0.4,0.4,0.7,0.8,0.8,1.3c0,0.2,0.1,0.4,0.1,0.6C208.6,307.5,208.6,307.6,208.6,307.7z
		 M208.6,312.3c0,0.2,0,0.3,0,0.4l0,0c0,1-0.2,1.6-0.7,2.1l-0.9-0.8c0.2-0.2,0.4-0.5,0.4-0.8c0.2-0.6,0.1-1.2-0.3-1.6
		c-0.5-0.5-1-1-1.4-1.5c-0.2-0.2-0.4-0.4-0.5-0.5c-0.2-0.2-0.3-0.3-0.5-0.5l-0.1-0.1l0.9-0.9c0,0,0,0,0.1,0.1
		c0.1,0.1,0.2,0.3,0.4,0.4c0.1,0.1,0.2,0.2,0.4,0.4c0.4,0.4,0.9,0.9,1.3,1.3c0.4,0.3,0.6,0.7,0.8,1c0.1,0.3,0.2,0.6,0.3,0.9
		C208.6,312.2,208.6,312.3,208.6,312.3z M208.6,332.4c0,0.9-0.2,1.5-0.6,2l0,0l0,0c0,0,0,0.1-0.1,0.1l-0.9-0.9c0,0,0,0,0-0.1
		c0.1-0.1,0.2-0.3,0.3-0.4c0.1-0.2,0.2-0.5,0.2-0.8c0-0.4-0.2-0.8-0.4-1.1c-0.3-0.3-0.6-0.7-0.9-1c-0.2-0.2-0.3-0.3-0.5-0.5
		c-0.3-0.3-0.6-0.6-0.8-0.9l-0.3-0.3l0.9-0.9c0.2,0.2,0.4,0.4,0.6,0.6c0.5,0.5,1,1,1.5,1.5c0.4,0.4,0.7,0.8,0.8,1.1
		c0.1,0.2,0.2,0.5,0.2,0.8C208.6,332,208.6,332.2,208.6,332.4z M208.6,337.9c0,0.4-0.1,0.7-0.3,1c-0.1,0.2-0.2,0.3-0.3,0.5
		c0,0,0,0,0,0.1l-0.9-0.9l0.1-0.1c0.2-0.3,0.4-0.7,0.4-1.1c0-0.5-0.2-0.9-0.5-1.2c-0.8-0.8-1.6-1.6-2.5-2.5l0,0l0,0
		c0.2-0.2,0.5-0.5,0.7-0.7c0.1-0.1,0.1-0.1,0.2-0.2l0,0c0.8,0.8,1.5,1.5,2.3,2.3c0.5,0.5,0.8,1,0.9,1.7
		C208.6,337,208.6,337.4,208.6,337.9z M202.6,293.1l-0.9,0.9c-0.1-0.2-0.2-0.4-0.2-0.6s0.2-0.4,0.4-0.4
		C202.2,293,202.4,293,202.6,293.1z M206.2,293c0.3,0,0.4,0.2,0.5,0.4c0,0.1,0,0.1,0,0.2s-0.1,0.3-0.2,0.5l-0.9-0.9
		C205.9,293,206.1,293,206.2,293z M205.8,347l0.9-0.9c0.1,0.2,0.2,0.3,0.2,0.5s-0.1,0.3-0.2,0.4C206.4,347.3,206,347.3,205.8,347z
		 M205.8,342.2L205.8,342.2c0.2-0.3,0.5-0.5,0.7-0.7l0.2-0.2c0.2,0.2,0.4,0.5,0.4,0.9c0,0.3-0.1,0.7-0.4,0.9c0,0,0,0-0.1-0.1
		s-0.2-0.2-0.4-0.4C206.1,342.5,205.9,342.3,205.8,342.2z M206.2,340.9l-3.3,3.3l-0.9-0.9l3.3-3.3L206.2,340.9z M205,344.6l-0.8,0.8
		l-0.9-0.9l0.8-0.9L205,344.6z M201.7,338.1c-0.2-0.2-0.4-0.5-0.4-0.9c0-0.3,0.1-0.6,0.4-0.9l0.9,0.9L201.7,338.1z M204.2,335.7
		l-0.8-0.8l-0.1-0.1l0.1-0.1l0.7-0.7l0.9,0.9L204.2,335.7z M205.8,337.3l0.9-0.9c0.2,0.2,0.4,0.5,0.4,0.9c0,0.3-0.1,0.6-0.4,0.9
		L205.8,337.3z M203,339.4l-0.9-0.9l3.3-3.3l0.8,0.8L203,339.4z M205,339.8l-0.8,0.8l-0.8-0.8l0.8-0.8L205,339.8z M203,334.4
		l-0.9-0.9l3.3-3.3l0.9,0.9L203,334.4z M206.6,333.3l-0.8-0.9l0.9-0.9c0.2,0.2,0.4,0.5,0.4,0.8C207,332.7,206.9,333,206.6,333.3z
		 M201.7,328.3c-0.2-0.3-0.4-0.6-0.4-0.9l0,0c0-0.3,0.1-0.6,0.4-0.9l0.9,0.9L201.7,328.3z M201.7,323.4c-0.3-0.3-0.4-0.6-0.4-0.9
		s0.1-0.6,0.3-0.8l0.1-0.1c0,0,0,0,0.1,0.1l0.8,0.8L201.7,323.4z M204.2,320.9l-0.8-0.8l0.8-0.8l0.8,0.8L204.2,320.9z M206.6,323.4
		l-0.8-0.9l0.9-0.9c0.2,0.2,0.4,0.5,0.4,0.8C207,322.9,206.9,323.2,206.6,323.4z M203,324.7l-0.9-0.9l3.3-3.3l0.9,0.9L203,324.7z
		 M204.2,325.9L204.2,325.9c-0.3-0.3-0.6-0.6-0.9-0.9c0.3-0.3,0.5-0.5,0.8-0.8l0.1-0.1l0.9,0.9L204.2,325.9z M206.6,328.3l-0.9-0.9
		l0.9-0.9c0.2,0.2,0.4,0.5,0.4,0.9C207,327.8,206.9,328.1,206.6,328.3z M203,329.5l-0.9-0.9l3.3-3.3l0.8,0.8L203,329.5z M205,329.9
		l-0.8,0.8l-0.8-0.8l0.8-0.8L205,329.9z M201.7,318.5c-0.3-0.3-0.4-0.6-0.4-0.9l0,0c0-0.2,0-0.3,0.1-0.5c0-0.1,0.1-0.2,0.2-0.4
		c0,0,0,0,0-0.1l0.9,0.9l-0.1,0.1C202.3,318,202,318.3,201.7,318.5z M204.2,316c-0.1-0.1-0.1-0.1-0.2-0.2c-0.2-0.2-0.4-0.5-0.7-0.7
		c0.2-0.2,0.5-0.5,0.7-0.7l0.2-0.2l0.8,0.9L204.2,316z M206.2,316.4l-3.3,3.3l-0.9-0.9l3.3-3.3L206.2,316.4z M206.7,316.8
		c0.2,0.2,0.3,0.5,0.3,0.9c0,0.3-0.1,0.6-0.4,0.9l-0.9-0.9L206.7,316.8z M206.2,311.6l-3.3,3.3l-0.8-0.8l3.3-3.3L206.2,311.6z
		 M206.6,313.6l-0.8-0.9l0.9-0.9c0.2,0.2,0.4,0.5,0.4,0.8C207,313.1,206.9,313.4,206.6,313.6z M201.7,308.7
		c-0.1-0.2-0.3-0.4-0.3-0.6c-0.1-0.4,0-0.8,0.2-1.1l0.1-0.1l0.9,0.9c0,0-0.1,0-0.1,0.1C202.2,308.2,202,308.4,201.7,308.7z
		 M204.2,306.3L204.2,306.3c-0.2-0.2-0.3-0.3-0.4-0.4c-0.2-0.2-0.3-0.3-0.5-0.5c0.2-0.2,0.5-0.5,0.7-0.7l0.1-0.1l0.1,0.1
		c0.2,0.2,0.4,0.4,0.6,0.6l0.1,0.1l0.1,0.1C204.8,305.7,204.6,305.9,204.2,306.3L204.2,306.3z M206.6,307c0.2,0.2,0.4,0.5,0.4,0.9
		c0,0.3-0.1,0.6-0.4,0.9l-0.9-0.9L206.6,307z M203,309.9l-0.9-0.9l3.3-3.3l0.9,0.9L203,309.9z M204.2,309.5l0.8,0.8l-0.8,0.8
		l-0.8-0.8L204.2,309.5z M201.7,303.8c-0.2-0.2-0.4-0.5-0.4-0.9l0,0c0-0.3,0.1-0.6,0.3-0.8l0,0c0.2,0.2,0.5,0.5,0.7,0.7l0.1,0.1
		L201.7,303.8z M201.7,298.9c-0.1-0.2-0.3-0.3-0.3-0.6c0-0.1,0-0.2,0-0.4l0,0c0-0.3,0.1-0.5,0.3-0.7l0.1-0.1l0.9,0.9l-0.6,0.6
		l-0.1,0.1C201.9,298.8,201.8,298.9,201.7,298.9z M204.2,296.4L204.2,296.4c-0.4-0.4-0.6-0.6-0.9-0.9c0.3-0.3,0.5-0.5,0.8-0.8
		l0.1-0.1c0.1,0.1,0.1,0.1,0.2,0.2c0.3,0.3,0.5,0.5,0.7,0.7c-0.2,0.2-0.5,0.5-0.7,0.7L204.2,296.4z M206.6,297.2
		c0.2,0.2,0.4,0.6,0.4,0.9s-0.1,0.6-0.4,0.9l-0.9-0.9L206.6,297.2z M203,300.2l-0.9-0.9l3.3-3.3l0.9,0.9L203,300.2z M204.2,301.3
		l-0.8-0.8l0.8-0.8l0.8,0.8L204.2,301.3z M206.2,301.7l-3.3,3.3l-0.8-0.8l3.3-3.3L206.2,301.7z M207,302.9c0,0.3-0.1,0.6-0.4,0.9
		l-0.9-0.9l0.9-0.9C206.9,302.3,207,302.6,207,302.9z M201.7,313.6c-0.2-0.2-0.4-0.5-0.4-0.9c0-0.3,0.1-0.6,0.3-0.8l0,0l0,0l0.8,0.8
		L201.7,313.6z M201.8,333.2L201.8,333.2c-0.3-0.2-0.5-0.5-0.4-0.9c0-0.3,0.1-0.5,0.3-0.7l0.1-0.1l0.1,0.1l0.8,0.8
		C202.4,332.7,202.1,332.9,201.8,333.2z M201.7,343c-0.2-0.2-0.4-0.5-0.4-0.9c0-0.3,0.1-0.6,0.4-0.9l0.9,0.9L201.7,343z
		 M201.7,346.3l0.9,0.9c-0.1,0.1-0.3,0.2-0.5,0.2s-0.4-0.2-0.5-0.4C201.5,346.6,201.6,346.5,201.7,346.3z M205.4,347.4L205.4,347.4
		c0.1,0.1,0.2,0.1,0.3,0.2c0.3,0.2,0.6,0.2,1,0.1c0.3-0.2,0.6-0.5,0.7-0.8c0.1-0.4-0.1-0.7-0.4-1.1c-0.8-0.8-1.6-1.6-2.4-2.4l0,0
		l0,0c0.2-0.2,0.4-0.4,0.6-0.6c0.1-0.1,0.2-0.2,0.3-0.3l0,0c0.2,0.2,0.5,0.5,0.7,0.7c0.5,0.5,1,1,1.6,1.6c0.4,0.4,0.7,0.9,0.8,1.5
		c0.1,0.5,0.1,0.8-0.1,1.1c-0.2,0.5-0.5,0.9-1,1.3c-0.3,0.2-0.7,0.3-1.1,0.3c-0.5,0-0.9,0-1.3-0.3c-0.2-0.1-0.4-0.2-0.5-0.4
		L205.4,347.4z M207,343.4L207,343.4c0.1-0.2,0.2-0.3,0.3-0.4c0.1-0.3,0.2-0.6,0.2-0.8c0-0.4-0.1-0.8-0.4-1.1c-0.3-0.4-0.7-0.7-1-1
		c-0.1-0.1-0.3-0.3-0.4-0.4l-1.1-1.1l0.9-0.9c0.2,0.2,0.4,0.4,0.6,0.6c0.5,0.5,1,1,1.5,1.5c0.4,0.4,0.6,0.7,0.8,1.1
		c0.1,0.3,0.2,0.5,0.2,0.8v0.1c0,0.2,0,0.5,0,0.7c0,0.1,0,0.2,0,0.3c0,0.6-0.2,1.1-0.5,1.5c-0.1,0.1-0.1,0.1-0.2,0.2L207,343.4z
		 M207,328.7C207,328.6,207,328.6,207,328.7c0.1-0.2,0.2-0.3,0.3-0.4c0.2-0.3,0.2-0.6,0.2-1c0-0.5-0.3-0.9-0.6-1.2
		c-0.3-0.3-0.6-0.6-1-1c-0.5-0.5-0.9-0.9-1.4-1.4l0,0l0,0c0.2-0.2,0.5-0.5,0.7-0.7c0.1-0.1,0.1-0.1,0.2-0.2l0,0l0.6,0.6
		c0.6,0.6,1.1,1.1,1.7,1.7c0.5,0.5,0.8,1,0.8,1.6c0.1,0.4,0.1,0.8,0,1.3c0,0.5-0.2,0.9-0.5,1.2c-0.1,0.1-0.1,0.2-0.2,0.3L207,328.7z
		 M207.8,324.6c-0.1-0.1-0.2-0.2-0.4-0.4c-0.1-0.1-0.3-0.2-0.4-0.4l-0.1-0.1c0.2-0.2,0.4-0.5,0.5-0.9c0.1-0.6,0-1.1-0.4-1.5
		c-0.6-0.6-1.2-1.2-1.8-1.9c-0.2-0.2-0.5-0.5-0.7-0.7l0.9-0.9c0.2,0.2,0.3,0.3,0.5,0.5c0.5,0.5,1.1,1.1,1.6,1.6
		c0.2,0.2,0.5,0.5,0.6,0.8c0.2,0.4,0.4,0.8,0.4,1.1c0,0.2,0,0.5,0,0.7c0,0.1,0,0.2,0,0.3C208.6,323.5,208.4,324.1,207.8,324.6
		L207.8,324.6z M207.9,319.8l-0.9-0.9c0.2-0.2,0.3-0.4,0.4-0.7c0.1-0.4,0.1-0.8,0-1.2c-0.1-0.3-0.4-0.6-0.6-0.8l0,0
		c-0.2-0.2-0.4-0.4-0.6-0.6l-0.1-0.1c-0.5-0.5-1-1-1.5-1.5l0,0l0,0c0.2-0.2,0.5-0.5,0.7-0.7c0.1-0.1,0.1-0.1,0.2-0.2l0.6,0.6
		c0.6,0.6,1.1,1.1,1.7,1.7c0.5,0.5,0.8,1,0.9,1.6c0.1,0.4,0.1,0.8,0,1.2c0,0.4-0.1,0.7-0.3,1C208.1,319.4,208,319.6,207.9,319.8
		C207.9,319.7,207.9,319.8,207.9,319.8z M207,294.3c0.2-0.2,0.3-0.4,0.3-0.6c0.1-0.3,0-0.6-0.2-0.9s-0.5-0.4-0.8-0.5
		c-0.3,0-0.6,0-0.8,0.2c-0.3,0.3-0.6,0.5-0.9,0.8c-0.4,0.4-0.9,0.9-1.3,1.3c-0.2,0.2-0.3,0.3-0.5,0.5l-0.9-0.9
		c0.3-0.3,0.6-0.6,0.9-0.9c0.5-0.5,1-1,1.5-1.5c0.4-0.4,0.8-0.6,1.3-0.7c0.4-0.1,0.8-0.1,1.3,0c0.5,0.2,0.9,0.5,1.2,1
		c0.2,0.3,0.3,0.7,0.3,1c0,0.1,0,0.2,0,0.3c0,0.1,0,0.1,0,0.2s0,0.2-0.1,0.4c-0.1,0.3-0.2,0.6-0.5,0.9L207,294.3z M202.3,291.3
		c0.1,0,0.2,0,0.3,0c0.3,0,0.6,0.1,1,0.3c0.1,0.1,0.2,0.1,0.3,0.2l0,0l-0.9,0.9c-0.1-0.1-0.3-0.2-0.5-0.3c-0.4-0.1-0.7,0-1,0.2
		c-0.3,0.3-0.4,0.6-0.4,0.9c0,0.2,0.1,0.5,0.3,0.7c0.2,0.2,0.3,0.4,0.5,0.5c0.8,0.8,1.4,1.4,2,2l0,0l0,0c-0.2,0.2-0.5,0.5-0.7,0.7
		c-0.1,0.1-0.1,0.1-0.2,0.2l0,0c-0.2-0.2-0.4-0.4-0.6-0.6c-0.5-0.5-1-1-1.5-1.5c-0.3-0.3-0.4-0.5-0.6-0.7c-0.2-0.3-0.3-0.6-0.3-1
		c0-0.2,0-0.3,0-0.5c0-0.3,0-0.5,0.1-0.7c0.1-0.2,0.2-0.4,0.3-0.6c0.4-0.5,0.9-0.8,1.4-0.8C201.9,291.3,202.1,291.3,202.3,291.3z
		 M201.4,301.7C201.4,301.7,201.3,301.7,201.4,301.7c-0.1,0.2-0.2,0.3-0.3,0.4c-0.3,0.6-0.3,1.2,0.1,1.8c0.1,0.1,0.2,0.2,0.3,0.4
		c0.4,0.4,0.8,0.8,1.2,1.2c0.5,0.5,0.9,0.8,1.2,1.2l0,0c-0.2,0.2-0.5,0.5-0.7,0.7l-0.2,0.2l0,0l-0.6-0.6c-0.6-0.6-1.2-1.2-1.7-1.7
		c-0.4-0.4-0.7-1-0.8-1.6c0-0.3-0.1-0.5-0.1-0.8c0-0.4,0.1-0.9,0.2-1.2c0.1-0.3,0.3-0.6,0.5-0.8L201.4,301.7z M201.4,306.6
		L201.4,306.6c-0.2,0.3-0.3,0.4-0.4,0.6c-0.1,0.1-0.1,0.3-0.1,0.5c0,0.1,0,0.2,0,0.3c0.1,0.6,0.4,1,0.7,1.3c0.5,0.5,1,1,1.5,1.5
		c0.2,0.2,0.5,0.5,0.7,0.7l0,0l-0.9,0.9l-0.6-0.6c-0.6-0.6-1.1-1.1-1.7-1.7c-0.3-0.3-0.5-0.6-0.7-1c-0.2-0.3-0.2-0.7-0.3-1.1
		c0-0.1,0-0.3,0-0.4s0-0.2,0-0.3c0-0.6,0.2-1.1,0.5-1.5c0.1-0.1,0.1-0.1,0.2-0.2L201.4,306.6z M201.4,321.3
		C201.4,321.3,201.3,321.3,201.4,321.3c-0.1,0.2-0.2,0.3-0.3,0.4c-0.3,0.6-0.3,1.2,0.1,1.8c0.1,0.1,0.2,0.2,0.3,0.4
		c0.4,0.4,0.8,0.8,1.2,1.2c0.4,0.4,0.8,0.8,1.2,1.2c-0.2,0.2-0.5,0.5-0.7,0.7c-0.1,0.1-0.1,0.1-0.2,0.2l0,0
		c-0.2-0.2-0.4-0.4-0.5-0.5c-0.5-0.5-1.1-1.1-1.6-1.6c-0.3-0.3-0.6-0.6-0.8-1c-0.1-0.3-0.2-0.6-0.3-0.9c0-0.2-0.1-0.5-0.1-0.7
		c0-0.8,0.2-1.3,0.5-1.8c0.1-0.1,0.1-0.2,0.2-0.3L201.4,321.3z M201.4,345.9c-0.1,0.1-0.3,0.3-0.3,0.6c0,0.1,0,0.2,0,0.3
		c0,0.3,0.1,0.6,0.4,0.8c0.2,0.2,0.4,0.3,0.7,0.3c0.3,0,0.6-0.1,0.9-0.4c0.7-0.7,1.3-1.3,2-2l0.5-0.5l0,0l0.9,0.9
		c-0.2,0.2-0.4,0.4-0.6,0.6c-0.6,0.6-1.2,1.2-1.8,1.8c-0.3,0.3-0.8,0.5-1.3,0.6h-0.1c-0.2,0-0.3,0-0.4,0c-0.4,0-0.8-0.1-1.1-0.4
		c-0.5-0.4-0.8-0.8-0.9-1.3c0-0.2-0.1-0.3-0.1-0.5c0-0.1,0-0.2,0-0.4c0-0.3,0.1-0.6,0.2-0.9c0.1-0.2,0.2-0.3,0.3-0.5c0,0,0,0,0-0.1
		L201.4,345.9z"/>
    -->
	<g id="heart" >
		<g>
			<path fill="#FFFFFF" d="M220,261.1c-0.1,0.3-0.1,0.5-0.2,0.8c-0.2,1.1-0.8,2.1-1.6,2.9c-1,1-2,2-3,3c1,0.9,1.6,1.9,1.4,3.3
				c-0.1,0.8-0.5,1.5-1.1,2c-1.4,1.2-3.2,1.1-4.8-0.5c-2.1,2.1-4,4.1-6.1,6.1c-2.1-2.2-4.1-4.1-6.2-6.2c-0.9,1-1.9,1.6-3.2,1.5
				c-0.8-0.1-1.5-0.4-2.1-1.1c-1.3-1.4-1.1-3.2,0.6-5.1c-0.4-0.3-0.8-0.6-1.2-1c-0.6-0.6-1.2-1.2-1.8-1.8c-1-1-1.6-2.1-1.7-3.4
				c0-0.1-0.1-0.2-0.1-0.3c0-0.2,0-0.4,0-0.6c0-0.1,0.1-0.2,0.1-0.3c0.6-4,4.6-6.1,8.2-4.1c0.3,0.2,0.5,0.1,0.7,0c1.8-1,3.6-1,5.4,0
				c0.4,0.2,0.7,0.5,1.1,0.7c0.1,0,0.1-0.1,0.2-0.1c2-1.6,4.1-1.8,6.4-0.6c0.3,0.2,0.5,0.1,0.7-0.1c3.3-1.8,7.2,0,8,3.5
				c0.1,0.3,0.1,0.7,0.2,1C220,260.8,220,261,220,261.1z M196.6,264.5c-0.8-0.9-1.3-2-1.5-3.2c-0.1-1.2,0.1-2.4,0.8-3.4
				c-1.3-0.8-3.1-0.4-4,0.7c-1,1.2-1.1,3.1,0,4.1c1,1.1,2.2,2.2,3.3,3.2C195.6,265.6,196.1,265.1,196.6,264.5z M213.7,266.1
				c1.1-1.1,2.2-2.1,3.2-3.2c0.8-0.9,1-1.9,0.7-3.1c-0.7-2.4-3.3-2.9-4.6-2c1.3,2.4,1,4.6-0.7,6.6
				C212.8,265.1,213.2,265.6,213.7,266.1z M201,260.3c-1.1-1.1-2.1-2.2-3.2-3.2c-1.9-1.8-4.7-1.7-6.6,0c-1.9,1.7-2.2,4.6-0.6,6.6
				c1.1,1.3,2.4,2.3,3.5,3.3c0,0.1-0.1,0.1-0.1,0.2c0.2-0.2,0.5-0.5,0.8-0.9c-0.2-0.1-0.4-0.2-0.5-0.3c-0.9-0.9-1.9-1.8-2.8-2.8
				c-1.9-2.1-1-5.4,1.8-6.2c1.5-0.4,2.8,0,3.8,1c1,1,2,2,3,3C200.4,260.8,200.7,260.6,201,260.3z M200,270.7
				c1.5,1.5,3.1,3.1,4.5,4.5c1.5-1.5,3-3,4.4-4.4c-0.4-0.5-0.9-1-1.5-1.6c-1,1-2,2.1-3.1,3.2c-1-1-2.1-2.1-3-3
				C200.9,269.8,200.4,270.3,200,270.7z M211.7,270.2c2.3-2.2,4.5-4.2,6.6-6.5c1.4-1.5,1.4-3.7,0.4-5.4s-3-2.7-4.9-2.4
				c-0.7,0.1-1.4,0.3-2,0.8c0.3,0.3,0.5,0.5,0.7,0.7c0.6-0.1,1.2-0.3,1.8-0.4c1.6-0.1,3.1,0.8,3.6,2.2c0.7,1.5,0.5,3-0.7,4.1
				c-1,1.1-2.2,2.2-3.3,3.3c-1,1-2,2-3,3C211.3,269.8,211.5,270.1,211.7,270.2z M195.6,268.7c3,3,5.9,5.9,8.8,8.8
				c1.9-1.9,3.7-3.7,5.7-5.6c-0.2-0.2-0.4-0.5-0.8-0.8c-1.7,1.7-3.3,3.3-5,5.1c-2.7-2.7-5.3-5.4-8.1-8.1
				C196,268.4,195.8,268.5,195.6,268.7z M211.8,264.2c1.9-1.7,1.9-5-0.1-6.9c-1.9-1.9-5.2-1.9-6.8-0.1c0.2,0.3,0.5,0.5,0.7,0.8
				c2.1-1.7,4.1-1,5.2,0c0.7,0.6,1.1,1.4,1.2,2.3c0.2,1.2-0.2,2.3-1,3.2C211.3,263.7,211.5,263.9,211.8,264.2z M207.9,268.8
				c1.2,1.2,2.4,2.4,3.4,3.4c1.2,1.2,3.1,1.1,4-0.1c1.1-1.3,0.8-3.1-0.6-4c-0.3,0.2-0.5,0.5-0.8,0.7c0.1,0.1,0.2,0.2,0.3,0.3
				c0.8,0.8,0.8,1.8,0.1,2.5c-0.7,0.7-1.7,0.6-2.4-0.2c-1-1-2.1-2.1-3.1-3.1c-0.1-0.1-0.2-0.2-0.4-0.3
				C208.4,268.4,208.2,268.5,207.9,268.8z M197.1,265c-1.3,1.3-2.5,2.4-3.6,3.6c-0.4,0.4-0.6,1.1-0.7,1.6c-0.2,1.2,0.6,2.3,1.8,2.8
				c1.2,0.5,2.4,0.1,3.3-1.1c-0.2-0.3-0.5-0.5-0.8-0.8c-0.2,0.2-0.3,0.4-0.4,0.5c-0.5,0.5-1.1,0.6-1.7,0.4c-0.6-0.2-1-0.7-1.1-1.3
				s0.2-1.1,0.6-1.5c1-1,2-2,3-3c0.1-0.1,0.3-0.3,0.3-0.4C197.5,265.5,197.3,265.3,197.1,265z M210.2,265.7
				c-0.2-0.2-0.5-0.5-0.8-0.8c-1.7,1.7-3.3,3.3-5,5.1c-0.6-0.6-1.2-1.3-1.7-1.9c-0.3,0.3-0.6,0.5-0.8,0.7c0.9,0.9,1.8,1.8,2.7,2.7
				C206.3,269.5,208.2,267.7,210.2,265.7z M201,266.5c-1-1-2-2-3-3c-1.1-1.1-1.5-2.5-1-3.9c0.2-0.8,0.2-0.9-0.6-1.3
				c-1.1,1.6-1,3.9,0.3,5.5c1.1,1.2,2.3,2.3,3.4,3.3C200.4,267,200.7,266.8,201,266.5z M206.3,261.1c0.3-0.3,0.6-0.5,0.9-0.7
				c-1-1-1.9-1.9-2.8-2.8c-0.4-0.4-0.8-0.7-1.2-1c-1.6-1-3.8-1-5.1,0.1c0.2,0.2,0.4,0.4,0.7,0.5c0.1,0.1,0.3,0.1,0.4,0.1
				c1.9-0.8,3.3-0.2,4.7,1.2C204.6,259.4,205.5,260.2,206.3,261.1z M210.3,258.2c-1.8,1.8-3.5,3.5-5.3,5.3c0.2,0.2,0.4,0.4,0.6,0.6
				c1.8-1.8,3.4-3.4,5.3-5.3C210.7,258.6,210.4,258.3,210.3,258.2z M207.1,266.6c-1.6-1.6-3.1-3.1-4.6-4.6c-0.2,0.2-0.4,0.4-0.6,0.6
				c1.6,1.6,3.1,3.1,4.6,4.6C206.6,267,206.9,266.8,207.1,266.6z M199.3,270.3c1.6-1.6,3.2-3.1,4.5-4.5c-0.2-0.2-0.4-0.5-0.5-0.6
				c-1.5,1.5-3.1,3.1-4.6,4.6C198.9,269.9,199.2,270.1,199.3,270.3z M203.3,258.9c-1.6,1.6-3.1,3.1-4.5,4.5c0.2,0.2,0.4,0.5,0.6,0.7
				c1.5-1.5,3.1-3.1,4.5-4.5C203.7,259.3,203.5,259.1,203.3,258.9z M213.3,266.7c-1.6-1.6-3.1-3.1-4.5-4.5c-0.2,0.2-0.4,0.4-0.6,0.6
				c1.5,1.5,3.1,3.1,4.5,4.6C212.9,267,213.1,266.8,213.3,266.7z M202.8,258.4c-1-1-2.7-1.2-3.4-0.6c0.7,0.7,1.4,1.4,2,2
				C201.8,259.4,202.3,258.9,202.8,258.4z M207.5,259.8c0.7-0.7,1.3-1.4,2-2c-1.1-0.5-2.5-0.3-3.4,0.6
				C206.6,258.9,207.1,259.4,207.5,259.8z M209.2,261.5c0.5,0.5,1,1,1.5,1.5c0.9-1,1.1-2.4,0.5-3.4
				C210.5,260.2,209.8,260.9,209.2,261.5z M199.7,261.6c-0.7-0.7-1.4-1.4-2-2c-0.5,1.1-0.3,2.5,0.6,3.4
				C198.7,262.4,199.2,261.9,199.7,261.6z M206.1,264.5c0.5,0.5,1,1,1.4,1.5c0.5-0.5,1-0.9,1.4-1.4c-0.5-0.5-1-1-1.5-1.5
				C207.1,263.6,206.6,264.1,206.1,264.5z M200,264.5c0.5,0.5,1,1,1.4,1.5c0.5-0.5,1-1,1.5-1.4c-0.5-0.5-1-1-1.5-1.5
				C200.9,263.6,200.4,264.1,200,264.5z M198.2,269.1c0.5-0.5,1.1-1,1.5-1.4c-0.5-0.5-1-1-1.4-1.5c-0.5,0.5-1,1-1.5,1.5
				C197.3,268.2,197.7,268.6,198.2,269.1z M205.9,267.8c-0.5-0.5-1-1-1.4-1.5c-0.5,0.5-1,1-1.4,1.4c0.5,0.5,1,1,1.5,1.5
				C204.9,268.6,205.4,268.2,205.9,267.8z M209.2,267.7c0.5,0.5,1,1,1.4,1.5c0.5-0.5,1-1,1.5-1.4c-0.5-0.5-1-1-1.5-1.5
				C210.1,266.7,209.6,267.2,209.2,267.7z M204.5,260.1c-0.5,0.5-1,1-1.5,1.4c0.5,0.5,1,1,1.4,1.4c0.5-0.5,1-1,1.5-1.4
				C205.4,261,204.9,260.5,204.5,260.1z M196.6,270.8c-0.5-0.5-1-1-1.5-1.5c-0.8,0.7-1,1.4-0.4,1.9
				C195.2,271.7,195.9,271.6,196.6,270.8z M213.9,269.3c-0.5,0.5-1.1,1-1.6,1.5c0.7,0.8,1.4,0.9,1.9,0.3
				C214.6,270.6,214.5,270,213.9,269.3z"/>
		</g>
	</g>
	<g id="circle" >
		<path fill="#FFFFFF" d="M204.7,95.2c-3,0-5.4,2.4-5.4,5.4s2.4,5.4,5.4,5.4c3.1,0,5.4-2.4,5.4-5.4S207.7,95.2,204.7,95.2z
			 M204.7,105.5c-2.7,0-4.9-2.2-4.9-4.9c0-2.7,2.2-4.9,4.9-4.9c2.7,0,4.9,2.2,4.9,4.9C209.6,103.3,207.5,105.5,204.7,105.5z"/>
		<path fill="#FFFFFF" d="M204.7,94c-3.6,0-6.6,3-6.6,6.6s3,6.6,6.6,6.6c3.6,0,6.6-3,6.6-6.6C211.3,97,208.3,94,204.7,94z
			 M204.7,106.7c-3.3,0-6.1-2.8-6.1-6.1s2.8-6.1,6.1-6.1c3.3,0,6.1,2.8,6.1,6.1C210.8,103.9,208.1,106.7,204.7,106.7z"/>
	</g>
	<g id="lines_x5F_top_x5F_right" class="line">
		<g>
			<line fill="#FFFFFF" x1="237.9" y1="100.5" x2="362.6" y2="100.5"/>
			<rect x="237.9" y="100.1" fill="#FFFFFF" width="124.6" height="0.8"/>
		</g>
		<g>
			<line fill="#FFFFFF" x1="237.9" y1="98.7" x2="362.6" y2="98.7"/>
			<rect x="237.9" y="98.4" fill="#FFFFFF" width="124.6" height="0.8"/>
		</g>
	</g>
	<g id="lines_x5F_top_x5F_left" class="line">
		<g>
			<line fill="#FFFFFF" x1="46.7" y1="100.5" x2="171.3" y2="100.5"/>
			<rect x="46.7" y="100.1" fill="#FFFFFF" width="124.6" height="0.8"/>
		</g>
		<g>
			<line fill="#FFFFFF" x1="46.7" y1="98.7" x2="171.3" y2="98.7"/>
			<rect x="46.7" y="98.4" fill="#FFFFFF" width="124.6" height="0.8"/>
		</g>
	</g>
	<g id="lines_x5F_bottom_x5F_right" class="line">
		<g>
			<line fill="#FFFFFF" x1="300.2" y1="227.9" x2="362.6" y2="227.9"/>
			<rect x="300.2" y="227.5" fill="#FFFFFF" width="62.4" height="0.8"/>
		</g>
		<g>
			<line fill="#FFFFFF" x1="300.2" y1="226.2" x2="362.6" y2="226.2"/>
			<rect x="300.2" y="225.8" fill="#FFFFFF" width="62.4" height="0.8"/>
		</g>
	</g>
	<g id="lines_x5F_bottom_x5F_left" class="line">
		<g>
			<line fill="#FFFFFF" x1="46.7" y1="227.9" x2="122.8" y2="227.9"/>
			<rect x="46.7" y="227.5" fill="#FFFFFF" width="76.1" height="0.8"/>
		</g>
		<g>
			<line fill="#FFFFFF" x1="46.7" y1="226.2" x2="122.8" y2="226.2"/>
			<rect x="46.7" y="225.8" fill="#FFFFFF" width="76.1" height="0.8"/>
		</g>
	</g>
	<g id="Logo" >
		<path class="logo" fill="#FFFFFF" d="M228.6,79.9c-1.8-0.1-3.5-0.3-5.2-0.4c-0.3,0-0.7,0.1-1,0.2c-5.9,3.6-12.4,5.2-19.3,5
			c-5.6-0.2-10.9-1.8-15.8-4.7c-0.8-0.5-1.5-0.6-2.4-0.5c-8,0.8-15.7-0.4-23-3.7c-0.4-0.2-0.6-0.5-0.6-0.9
			c0.8-8.3,3.6-15.8,8.6-22.4c0.2-0.3,0.3-0.7,0.3-1c-0.2-6,1.2-11.6,3.9-16.9c2.2-4.1,5-7.7,8.8-10.5c1.7-1.3,3.5-2.4,5.2-3.5
			c0.2-0.2,0.5-0.4,0.6-0.7c3-6.8,7.3-12.6,13.1-17.1c0.7-0.5,1.3-1,2-1.5c0.4-0.3,0.7-0.3,1.1,0c5.8,4,10.3,9.3,13.6,15.6
			c0.3,0.5,0.6,0.9,0.7,1.5c0.5,1.6,1.6,2.5,3,3.3c7.3,4.4,12.2,10.8,14.8,18.9c1.2,3.4,1.7,7.1,1.6,10.8c0,0.6,0.1,1.1,0.5,1.6
			c4.4,6,7.2,12.6,8.2,20c0.1,0.7,0.2,1.4,0.3,2.1c0.1,0.5-0.1,0.7-0.5,1c-4,1.9-8.3,3.2-12.7,3.6C232.4,79.7,230.5,79.7,228.6,79.9
			z M217.2,18.8c-0.1-0.2-0.2-0.4-0.3-0.6c-2.9-5.7-6.9-10.4-12-14.4c-0.4-0.3-0.6-0.2-0.9,0c-11,8.8-16.5,20.1-16.4,34.2
			c0,0.2,0,0.4,0.1,0.7c1.4-0.5,2.7-0.9,3.9-1.4c0.1-0.1,0.2-0.4,0.3-0.6c0.1-1.5,0.1-3,0.3-4.4c0.9-7.3,3.7-13.8,8.6-19.4
			c1.2-1.4,2.5-2.5,3.7-3.7c2.6,2.3,4.7,4.7,6.5,7.6c0.2,0.3,0.4,0.6,0.6,0.6C213.5,17.8,215.3,18.3,217.2,18.8z M170.6,55.4
			c-0.3,0.5-0.6,0.8-0.8,1.2c-3.3,5.2-5.3,10.9-6.1,17.1c-0.1,0.5,0.1,0.6,0.5,0.8c3.7,1.6,7.7,2.7,11.8,3.1
			c7.6,0.7,15-0.5,21.9-3.7c1.6-0.8,3.2-1.7,4.7-2.6c-1.1-1-2.1-1.9-3.2-2.7c-0.2-0.1-0.6-0.1-0.8,0c-5,2.9-10.4,4.5-16.3,4.8
			c-4.6,0.3-9.1-0.3-13.5-1.7c-0.5-0.1-0.5-0.4-0.4-0.8c0.6-2.7,1.4-5.3,2.7-7.8c0.7-1.2,0.9-2.4,0.3-3.6c-0.2-0.3-0.2-0.7-0.3-1
			C171,57.5,170.8,56.5,170.6,55.4z M223.2,41.9c-0.3,1.5-0.5,2.7-0.7,3.8c-0.1,0.6,0,0.8,0.5,1.1c9.2,5.5,15,13.5,17.4,23.9
			c0.1,0.5,0,0.8-0.5,0.9c-2.8,0.8-5.6,1.5-8.6,1.6c-0.9,0-1.7,0.3-2.3,1.1c-0.8,0.9-1.8,1.7-2.6,2.5c-0.3,0.2-0.5,0.5-0.9,0.8
			c0.4,0.1,0.6,0.1,0.8,0.1c6,0.3,11.8-0.6,17.4-2.9c1.5-0.6,1.6-0.6,1.3-2.2c-1.8-11.1-7.1-20.1-16.1-26.9
			C227.2,44.4,225.3,43.2,223.2,41.9z M231.6,57c-0.1,0-0.2,0.1-0.2,0.1c-0.9,3.7-2.5,7.1-4.8,10.1c-6.6,9-18.5,13.1-29.2,10.1
			c-1.1-0.3-2.1-0.3-3.3,0.1c-1.5,0.6-3.1,1-4.7,1.5c0.3,0.2,0.5,0.3,0.7,0.4c3.8,1.9,7.9,3,12.1,3.3c5.7,0.4,11-0.7,16.2-3.3
			c5-2.5,9.2-6,12.3-10.6c1.5-2.1,2.7-4.3,3.4-6.7c0.1-0.2,0.2-0.6,0.1-0.7C233.5,59.8,232.6,58.5,231.6,57z M185.4,71
			c0-0.1,0-0.2,0-0.3c-0.1-0.1-0.3-0.2-0.4-0.3c-2.7-2.7-4.8-5.6-6.2-9.1c-2.3-5.6-2.8-11.4-1.3-17.3c1.3-5.1,3.7-9.5,7.5-13.1
			c0.6-0.6,1-1.2,1.1-2.1c0.3-1.8,0.8-3.4,1.2-5.2c-0.4,0.2-0.7,0.4-0.9,0.6c-3,2.1-5.6,4.6-7.8,7.6c-4.8,6.6-6.8,14-6,22.2
			c0.6,6.3,3.1,11.9,7,16.9c0.2,0.2,0.5,0.5,0.7,0.5C182,71.2,183.7,71.1,185.4,71z M196.4,23.9c0.1,0.1,0.1,0.1,0.2,0.2
			c4-1.2,8.2-1.5,12.4-0.8c6,1,11.1,3.6,15.4,8.1c3.5,3.6,5.9,8,7.1,12.9c0.1,0.4,0.4,0.8,0.7,1.1c1.2,1.2,2.5,2.4,3.7,3.5
			c0.2,0.2,0.4,0.3,0.6,0.6c-0.1-3.2-0.7-6.1-1.7-9c-2.1-6.1-5.5-11-10.5-15.1c-4.7-3.7-10.1-5.9-16.1-6.7c-2.9-0.4-5.7-0.3-8.7,0.2
			c-0.3,0-0.7,0.2-0.8,0.4C198,20.9,197.2,22.4,196.4,23.9z M211.4,66.6c2.9,1.7,5.8,2.9,9,3.6c0.2,0.1,0.6-0.1,0.8-0.3
			c4.5-3.8,7.3-8.8,8.4-14.5c0.1-0.3-0.1-0.7-0.3-0.9c-0.7-0.8-1.5-1.6-2.3-2.2c-1.7-1.3-3.3-2.5-5.1-3.8
			C219.8,55.5,216.3,61.4,211.4,66.6z M187.2,48.6c-2.8,1.6-5.1,3.4-7.4,5.6c-0.4,0.4-0.5,0.8-0.4,1.3c1.2,5.7,3.9,10.4,8.3,14.3
			c0.4,0.3,0.7,0.4,1.2,0.3c2.8-0.7,5.4-1.8,7.9-3.2c0.2-0.1,0.5-0.3,0.7-0.5C192.6,61.4,189.2,55.5,187.2,48.6z M194,36.7
			c7-1.7,13.8-1.7,20.8,0c0-0.4,0-0.6,0-0.9c-0.3-2.4-0.7-4.7-0.9-7.1c-0.2-1.5-0.9-2.2-2.4-2.6c-5.2-1.4-10.3-1.4-15.5,0.4
			c-0.5,0.2-0.7,0.4-0.8,0.8c-0.4,1.8-0.8,3.4-1,5.2C194.1,33.9,194.1,35.2,194,36.7z M213.7,45.4c-4.8-1.8-15.4-1.7-18.5,0.1
			c1.7,6.1,4.7,11.4,9.3,16C209,56.8,212.1,51.6,213.7,45.4z M209.4,65.4c0.2-0.2,0.3-0.2,0.4-0.3c5.1-5.4,8.7-11.6,10.3-18.9
			c1.2-4.8,1.5-9.6,0.8-14.5c0-0.3-0.1-0.6-0.3-0.8c-1.4-1.3-3-2.3-4.7-3.2c2.8,13.4-0.5,25-9.9,35
			C207.2,63.8,208.3,64.6,209.4,65.4z M218.5,72.1c-13-4.5-21.5-13.1-25.4-26.3c-1.3,0.6-2.6,1.1-4,1.7c0.5,1.4,0.9,2.8,1.5,4
			c4.2,10.5,11.7,18.1,22.2,22.8c0.2,0.1,0.6,0.2,0.8,0.1C215.1,73.8,216.8,72.9,218.5,72.1z M214.8,38.9c-0.2-0.1-0.2-0.1-0.3-0.1
			c-0.2-0.1-0.4-0.1-0.6-0.2c-7.2-1.7-14.4-1.5-21.5,0.7c-4.1,1.3-7.9,3.2-11.5,5.5c-1.3,0.9-2,1.9-2,3.3c0,1.3,0,2.5,0,3.7
			c10.2-9.1,22-12,35.3-8.9C214.4,41.6,214.6,40.3,214.8,38.9z M209.8,75.6c-1.7-1-3.3-1.9-4.8-2.9c-0.4-0.3-0.7-0.2-1,0
			c-1.4,0.8-2.9,1.7-4.2,2.5c-0.2,0.1-0.3,0.2-0.5,0.4C202.3,76.4,206.4,76.4,209.8,75.6z M223.4,33.5c0,2.1,0,4,0,6
			c0,0.1,0.1,0.3,0.3,0.4c1.7,0.9,3.3,1.9,5,2.9C227.6,39.3,225.9,36.3,223.4,33.5z M185.6,33.5c-2.5,2.9-4.2,5.8-5.3,9.3
			c1.8-1,3.4-2,5.1-2.9c0.1-0.1,0.3-0.3,0.3-0.4C185.6,37.5,185.6,35.6,185.6,33.5z M238,70.1c-0.6-2.1-1.2-4-2.1-5.8
			c-1.3,2.3-2.6,4.5-3.9,6.9C233.9,70.8,235.9,70.5,238,70.1z M173,64.2c-0.7,2-1.4,3.8-2.1,5.9c2.2,0.4,4.1,0.7,6.1,1.1
			C175.6,68.8,174.3,66.5,173,64.2z M200.4,16.6c2.8,0,5.3,0,8.1,0c-1.4-1.6-2.7-3.2-4-4.7C203.1,13.4,201.8,15,200.4,16.6z"/>
	</g>
	<g id="letspraytogether" enable-background="new">
		<path fill="#FFFFFF" d="M143.7,215.5c0,0.2,0,0.4-0.1,0.6l-5.2,13.3c-0.3,0.8-0.4,1.3-0.4,1.4c0,0.2,0.1,0.4,0.3,0.4
			c0.3,0,0.9-0.5,1.6-1.4c0.3-0.4,0.5-0.6,0.6-0.6c0.1,0,0.2,0,0.3,0.1s0.1,0.2,0.1,0.3c0,0.1-0.3,0.5-0.8,1.2s-1.1,1.2-1.6,1.6
			c-0.5,0.4-1,0.6-1.3,0.6c-0.8,0-1.3-0.4-1.3-1.3c0-0.4,0.1-0.9,0.3-1.5l4.3-11.2c0.2-0.5,0.3-0.8,0.3-1.1c0-0.3-0.3-0.5-1-0.6
			c-0.1,0-0.2-0.1-0.2-0.3c0-0.2,0.1-0.3,0.2-0.3c0.5-0.1,1.1-0.3,1.8-0.5c0.7-0.3,1.2-0.5,1.6-0.7c0.2-0.1,0.3-0.2,0.4-0.2
			C143.6,215.2,143.7,215.3,143.7,215.5z"/>
		<path fill="#FFFFFF" d="M149.8,223.7c0,1.1-0.5,2.1-1.6,2.9c-1.1,0.9-2.3,1.3-3.7,1.3c0,0.5-0.1,0.9-0.1,1.3
			c0,0.7,0.1,1.2,0.3,1.5c0.2,0.3,0.5,0.4,1,0.4c1,0,1.9-0.6,2.7-1.7l0.1,0c0.1,0,0.1,0,0.2,0.1c0.1,0.1,0.1,0.2,0.1,0.2
			c0,0.2-0.2,0.6-0.7,1.2c-0.5,0.6-1,1.1-1.5,1.4c-0.5,0.3-1.1,0.5-1.6,0.5c-0.8,0-1.4-0.3-1.9-0.9s-0.7-1.3-0.7-2.1
			c0-1.1,0.3-2.3,0.9-3.6c0.6-1.2,1.4-2.3,2.3-3.1c0.9-0.8,1.8-1.3,2.6-1.3c0.6,0,1,0.2,1.3,0.5
			C149.6,222.8,149.8,223.2,149.8,223.7z M148.1,224.1c0-0.7-0.3-1-0.9-1c-0.6,0-1.1,0.4-1.6,1.2c-0.5,0.8-0.8,1.7-1.1,2.9
			c0.7,0,1.3-0.1,1.8-0.4c0.5-0.3,0.9-0.7,1.3-1.2S148.1,224.6,148.1,224.1z"/>
		<path fill="#FFFFFF" d="M158.4,222.9c0,0.2-0.1,0.3-0.2,0.4c-0.1,0.1-0.2,0.2-0.3,0.2l-2.4-0.1l-2.2,6.5c-0.2,0.5-0.2,0.9-0.2,1.1
			c0,0.3,0.1,0.4,0.3,0.4c0.4,0,1.1-0.5,2.2-1.5c0.4-0.4,0.7-0.6,0.7-0.6c0.1,0,0.2,0,0.3,0.1s0.1,0.2,0.1,0.3c0,0.1-0.3,0.5-1,1.1
			c-0.7,0.6-1.3,1.1-2,1.5c-0.6,0.4-1.1,0.6-1.5,0.6c-0.9,0-1.3-0.4-1.3-1.3c0-0.4,0.1-0.9,0.3-1.4l2.3-6.6l-1.8,0
			c-0.2,0-0.2-0.1-0.2-0.4c0-0.1,0.1-0.3,0.2-0.4s0.2-0.2,0.3-0.2h1.9l0.9-2.5c0-0.1,0.2-0.2,0.4-0.3c0.2-0.1,0.5-0.1,0.7-0.1
			c0.2,0,0.4,0,0.6,0.1c0.2,0.1,0.3,0.1,0.3,0.2l0,0.1l-0.9,2.5h2.3C158.3,222.5,158.4,222.6,158.4,222.9z"/>
		<path fill="#FFFFFF" d="M163.5,217.2c0,0.7-0.2,1.3-0.6,2c-0.4,0.7-0.9,1.3-1.6,1.8s-1.2,0.8-1.4,0.8c-0.2,0-0.3-0.1-0.3-0.4
			c0-0.1,0.2-0.2,0.5-0.4c0.8-0.5,1.3-1,1.6-1.4c0.3-0.4,0.4-0.9,0.4-1.3c0-0.1,0-0.1-0.1-0.1l-0.1,0c-0.1,0-0.2,0-0.2,0
			c-0.3,0-0.5-0.1-0.7-0.3c-0.2-0.2-0.3-0.4-0.3-0.7c0-0.4,0.2-0.8,0.5-1.1s0.7-0.5,1.1-0.5c0.4,0,0.7,0.1,0.9,0.4
			C163.4,216.5,163.5,216.8,163.5,217.2z"/>
		<path fill="#FFFFFF" d="M167.3,223.3c0,0.7-0.3,1-0.8,1c-0.2,0-0.6-0.2-1.1-0.6c-0.5-0.4-0.8-0.6-1-0.6c-0.2,0-0.4,0.1-0.5,0.2
			c-0.1,0.1-0.2,0.3-0.2,0.5c0,0.4,0.3,1.3,0.8,2.5c0.6,1.3,0.9,2.3,0.9,2.8c0,1-0.3,1.9-1,2.7c-0.7,0.8-1.6,1.2-2.7,1.2
			c-0.6,0-1.1-0.1-1.5-0.4c-0.5-0.3-0.7-0.6-0.7-0.9c0-0.3,0.1-0.5,0.3-0.7c0.2-0.2,0.4-0.3,0.7-0.3c0.3,0,0.5,0.2,0.8,0.6
			c0.3,0.3,0.5,0.5,0.7,0.7s0.4,0.2,0.7,0.2c0.3,0,0.6-0.1,0.7-0.4c0.2-0.3,0.3-0.7,0.3-1.2c0-0.4-0.2-1-0.7-1.9
			c-0.6-1.3-1-2.4-1-3.1c0-0.8,0.3-1.6,1-2.3s1.4-1.1,2.3-1.1c0.6,0,1,0.1,1.4,0.4C167.2,222.6,167.3,222.9,167.3,223.3z"/>
		<path fill="#FFFFFF" d="M182.2,225.3c0,1.1-0.3,2.3-0.9,3.5c-0.6,1.2-1.4,2.2-2.4,2.9c-1,0.8-1.9,1.1-2.8,1.1
			c-0.7,0-1.3-0.3-1.7-1l-1.5,4.4c-0.1,0.3-0.1,0.6-0.1,0.8c0,0.2,0.1,0.4,0.3,0.5c0.2,0.1,0.6,0.3,1.2,0.4c0.1,0,0.1,0.1,0.1,0.2
			c0,0.3-0.1,0.5-0.3,0.5c-1.8-0.1-3.6-0.2-5.6-0.2c-0.1,0-0.1-0.1-0.1-0.2c0-0.1,0-0.2,0.1-0.3c0.1-0.1,0.1-0.1,0.2-0.1
			c1.1-0.1,1.8-0.6,2.2-1.5l4.1-12.1c-0.5,0.2-1,0.5-1.5,0.8l-0.1,0c-0.1,0-0.1,0-0.2-0.1c-0.1-0.1-0.1-0.2-0.1-0.3
			c0-0.1,0.1-0.1,0.3-0.3c0.2-0.1,0.3-0.2,0.5-0.3c0.5-0.3,1-0.6,1.5-0.8l1.1-3.2c0-0.1,0.2-0.2,0.4-0.3c0.3-0.1,0.5-0.1,0.7-0.1
			c0.2,0,0.4,0,0.6,0.1c0.2,0.1,0.3,0.2,0.3,0.3l-0.8,2.3c0.5-0.2,1-0.3,1.5-0.3c0.9,0,1.6,0.3,2.1,0.9S182.2,224.3,182.2,225.3z
			 M179.9,225c0-1.2-0.5-1.8-1.4-1.8c-0.4,0-0.8,0-1.1,0.1l-2,5.8c-0.2,0.7-0.4,1.3-0.4,1.8c0,0.8,0.4,1.2,1.1,1.2
			c0.6,0,1.2-0.3,1.8-1c0.6-0.7,1.1-1.6,1.4-2.7C179.7,227.3,179.9,226.2,179.9,225z"/>
		<path fill="#FFFFFF" d="M192.7,223.3c0,0.4-0.1,0.7-0.3,0.9s-0.5,0.4-0.8,0.4c-0.3,0-0.6-0.1-0.8-0.4c-0.2-0.2-0.4-0.4-0.6-0.4
			c-0.5,0-1.2,0.8-2.2,2.4c-1,1.6-2,3.6-3,6c-0.1,0.3-0.5,0.4-1.1,0.4c-0.2,0-0.4,0-0.6-0.1c-0.2-0.1-0.3-0.1-0.3-0.2l0-0.1l2.5-7.3
			c0.2-0.6,0.3-1,0.3-1.2c0-0.2-0.1-0.3-0.2-0.3c-0.3,0-0.7,0.4-1.3,1.3c-0.3,0.4-0.5,0.6-0.6,0.6c-0.1,0-0.2,0-0.3-0.1
			s-0.1-0.2-0.1-0.3c0-0.1,0.3-0.5,0.8-1.1c0.5-0.6,1-1.1,1.5-1.4s0.9-0.5,1.3-0.5c0.8,0,1.2,0.4,1.2,1.1c0,0.4-0.1,1-0.4,1.7
			l-0.4,1.3c1.5-2.7,2.8-4,3.9-4c0.4,0,0.8,0.1,1.1,0.4C192.6,222.6,192.7,222.9,192.7,223.3z"/>
		<path fill="#FFFFFF" d="M201.6,222.2l-3.4,7.8c-0.2,0.5-0.4,0.9-0.4,1.2c0,0.2,0.1,0.3,0.2,0.3c0.2,0,0.7-0.5,1.5-1.4
			c0.4-0.4,0.6-0.7,0.6-0.7c0.1,0,0.2,0,0.3,0.1s0.1,0.2,0.1,0.3c0,0.1-0.3,0.5-0.9,1.1c-0.6,0.6-1.1,1.2-1.6,1.5
			c-0.5,0.4-1,0.5-1.3,0.5c-0.8,0-1.2-0.4-1.2-1.1c0-0.7,0.3-1.7,1-2.9c-0.6,1.1-1.3,2-2.3,2.8c-1,0.8-1.8,1.2-2.5,1.2
			c-0.4,0-0.7-0.2-1-0.5c-0.2-0.3-0.3-0.7-0.3-1.3c0-1,0.4-2.2,1.3-3.6c0.9-1.3,1.9-2.5,3.2-3.5s2.3-1.5,3.2-1.5
			c0.4,0,0.8,0.1,1,0.3l0.3-0.7c0.1-0.3,0.5-0.4,1.2-0.4C201.3,221.8,201.6,221.9,201.6,222.2L201.6,222.2z M198.7,224
			c0-0.5-0.2-0.7-0.5-0.7c-0.7,0-1.4,0.4-2.3,1.1c-0.9,0.7-1.6,1.7-2.3,2.7c-0.6,1.1-1,2-1,2.7c0,0.4,0.1,0.7,0.2,0.9
			c0.1,0.2,0.4,0.3,0.7,0.3c0.4,0,1-0.5,1.9-1.4c0.8-0.9,1.6-2,2.3-3.1S198.7,224.6,198.7,224z"/>
		<path fill="#FFFFFF" d="M211.3,222.6c0,1.2-0.7,3.2-2.1,6.2s-2.8,5.4-4.3,7.3c-1.5,1.9-2.8,2.9-3.8,2.9c-0.4,0-0.8-0.1-1.1-0.3
			c-0.3-0.2-0.5-0.5-0.5-0.8c0-0.3,0.1-0.5,0.3-0.7c0.2-0.2,0.4-0.3,0.7-0.3c0.2,0,0.4,0.1,0.7,0.3c0.3,0.2,0.6,0.3,0.9,0.3
			c0.4,0,0.8-0.3,1.4-1c0.6-0.7,1-1.4,1.3-2.4c0.3-0.9,0.5-2,0.5-3.1c0-2.1-0.1-3.8-0.4-5.1c-0.3-1.3-0.6-2-0.9-2
			c-0.4,0-0.8,0.5-1.3,1.6c-0.2,0.4-0.3,0.6-0.4,0.6c-0.1,0-0.2,0-0.3-0.1c-0.1-0.1-0.1-0.2-0.1-0.3c0-0.3,0.2-0.8,0.5-1.5
			s0.7-1.2,1.1-1.6c0.4-0.4,0.8-0.6,1.1-0.6c0.8,0,1.5,0.6,2,1.8c0.5,1.2,0.7,2.9,0.7,5.1c0,0.9,0,1.7,0,2.2
			c0.7-1.2,1.3-2.5,1.7-3.7c0.4-1.3,0.7-2.8,0.9-4.4c0.1-0.6,0.3-1,0.6-1c0.2,0,0.4,0.1,0.6,0.2
			C211.2,222.3,211.3,222.5,211.3,222.6z"/>
		<path fill="#FFFFFF" d="M224.9,222.9c0,0.2-0.1,0.3-0.2,0.4c-0.1,0.1-0.2,0.2-0.3,0.2l-2.4-0.1l-2.2,6.5c-0.2,0.5-0.2,0.9-0.2,1.1
			c0,0.3,0.1,0.4,0.3,0.4c0.4,0,1.1-0.5,2.2-1.5c0.4-0.4,0.7-0.6,0.7-0.6c0.1,0,0.2,0,0.3,0.1s0.1,0.2,0.1,0.3c0,0.1-0.3,0.5-1,1.1
			c-0.7,0.6-1.3,1.1-2,1.5c-0.6,0.4-1.1,0.6-1.5,0.6c-0.9,0-1.3-0.4-1.3-1.3c0-0.4,0.1-0.9,0.3-1.4l2.3-6.6l-1.8,0
			c-0.2,0-0.2-0.1-0.2-0.4c0-0.1,0.1-0.3,0.2-0.4s0.2-0.2,0.3-0.2h1.9l0.9-2.5c0-0.1,0.2-0.2,0.4-0.3c0.2-0.1,0.5-0.1,0.7-0.1
			c0.2,0,0.4,0,0.6,0.1s0.3,0.1,0.3,0.2l0,0.1l-0.9,2.5h2.3C224.8,222.5,224.9,222.6,224.9,222.9z"/>
		<path fill="#FFFFFF" d="M233.4,225.6c0,1.1-0.3,2.3-0.9,3.4c-0.6,1.1-1.4,2.1-2.3,2.8c-0.9,0.7-1.9,1.1-2.8,1.1
			c-0.8,0-1.4-0.3-2-1c-0.6-0.7-0.8-1.5-0.8-2.6c0-1.1,0.3-2.3,0.9-3.4s1.3-2.1,2.3-2.8s1.9-1.1,2.8-1.1c0.8,0,1.4,0.3,2,1
			C233.1,223.7,233.4,224.6,233.4,225.6z M231.4,224.1c0-0.5-0.1-0.9-0.2-1c-0.1-0.2-0.4-0.3-0.7-0.3c-0.5,0-1.1,0.4-1.8,1.3
			c-0.7,0.9-1.2,1.9-1.6,3.2c-0.4,1.2-0.6,2.4-0.6,3.6c0,0.5,0.1,0.9,0.2,1.1c0.1,0.2,0.4,0.3,0.7,0.3c0.5,0,1.1-0.4,1.8-1.3
			c0.7-0.9,1.2-1.9,1.6-3.2S231.4,225.2,231.4,224.1z"/>
		<path fill="#FFFFFF" d="M244.4,224.4l-1.5,0c0,0.3,0,0.5,0,0.7c0,1.3-0.5,2.5-1.6,3.6c-1,1.1-2.2,1.6-3.5,1.6
			c-0.3,0-0.5,0-0.6,0.1c-0.2,0.1-0.2,0.2-0.2,0.3c0,0.1,0.1,0.3,0.3,0.4s0.7,0.3,1.6,0.6c1.6,0.5,2.7,1,3.2,1.5
			c0.6,0.5,0.8,1,0.8,1.6c0,0.7-0.3,1.4-0.8,2s-1.2,1.2-2.1,1.6c-0.8,0.4-1.8,0.6-2.7,0.6c-1.5,0-2.7-0.3-3.6-0.8s-1.4-1.2-1.4-2.1
			c0-0.6,0.3-1.1,1-1.8c0.7-0.6,1.6-1.1,2.6-1.6c-0.9-0.4-1.3-0.9-1.3-1.2c0-0.2,0.1-0.5,0.4-0.7c0.3-0.2,0.7-0.5,1.5-0.9
			c-0.9-0.5-1.4-1.4-1.4-2.7c0-1.3,0.5-2.5,1.5-3.6c1-1.1,2.2-1.6,3.5-1.6c1,0,1.8,0.4,2.2,1.2l2.3-0.1c0.1,0,0.2,0.1,0.2,0.3
			c0,0.2-0.1,0.5-0.2,0.7S244.5,224.4,244.4,224.4z M241.1,235.9c0-0.5-0.3-1-0.9-1.4c-0.6-0.4-1.7-0.9-3.3-1.3
			c-0.7,0.2-1.3,0.6-1.9,1.2s-0.9,1.1-0.9,1.7c0,1.5,1.1,2.2,3.4,2.2c1,0,1.9-0.2,2.6-0.7C240.7,237.1,241.1,236.6,241.1,235.9z
			 M240.9,224c0-0.9-0.3-1.3-0.9-1.3c-0.4,0-0.9,0.3-1.3,0.8c-0.5,0.5-0.8,1.2-1.1,2c-0.3,0.8-0.4,1.7-0.4,2.6
			c0,0.4,0.1,0.7,0.3,0.9c0.2,0.2,0.4,0.4,0.7,0.4c0.7,0,1.4-0.5,1.9-1.6C240.6,226.8,240.9,225.5,240.9,224z"/>
		<path fill="#FFFFFF" d="M251.8,223.7c0,1.1-0.5,2.1-1.6,2.9c-1.1,0.9-2.3,1.3-3.7,1.3c0,0.5-0.1,0.9-0.1,1.3
			c0,0.7,0.1,1.2,0.3,1.5c0.2,0.3,0.5,0.4,1,0.4c1,0,1.9-0.6,2.7-1.7l0.1,0c0.1,0,0.1,0,0.2,0.1c0.1,0.1,0.1,0.2,0.1,0.2
			c0,0.2-0.2,0.6-0.7,1.2c-0.5,0.6-1,1.1-1.5,1.4c-0.5,0.3-1,0.5-1.6,0.5c-0.8,0-1.4-0.3-1.9-0.9c-0.5-0.6-0.7-1.3-0.7-2.1
			c0-1.1,0.3-2.3,0.9-3.6s1.4-2.3,2.3-3.1c0.9-0.8,1.8-1.3,2.6-1.3c0.6,0,1,0.2,1.3,0.5C251.7,222.8,251.8,223.2,251.8,223.7z
			 M250.1,224.1c0-0.7-0.3-1-0.9-1c-0.6,0-1.1,0.4-1.6,1.2c-0.5,0.8-0.8,1.7-1.1,2.9c0.7,0,1.3-0.1,1.8-0.4c0.5-0.3,0.9-0.7,1.3-1.2
			C250,225,250.1,224.6,250.1,224.1z"/>
		<path fill="#FFFFFF" d="M260.4,222.9c0,0.2-0.1,0.3-0.2,0.4c-0.1,0.1-0.2,0.2-0.3,0.2l-2.4-0.1l-2.2,6.5c-0.2,0.5-0.2,0.9-0.2,1.1
			c0,0.3,0.1,0.4,0.3,0.4c0.4,0,1.1-0.5,2.2-1.5c0.4-0.4,0.7-0.6,0.7-0.6c0.1,0,0.2,0,0.3,0.1s0.1,0.2,0.1,0.3c0,0.1-0.3,0.5-1,1.1
			c-0.7,0.6-1.3,1.1-2,1.5c-0.6,0.4-1.1,0.6-1.5,0.6c-0.9,0-1.3-0.4-1.3-1.3c0-0.4,0.1-0.9,0.3-1.4l2.3-6.6l-1.8,0
			c-0.2,0-0.2-0.1-0.2-0.4c0-0.1,0.1-0.3,0.2-0.4s0.2-0.2,0.3-0.2h1.9l0.9-2.5c0-0.1,0.2-0.2,0.4-0.3c0.2-0.1,0.5-0.1,0.7-0.1
			c0.2,0,0.4,0,0.6,0.1s0.3,0.1,0.3,0.2l0,0.1l-0.9,2.5h2.3C260.3,222.5,260.4,222.6,260.4,222.9z"/>
		<path fill="#FFFFFF" d="M270.6,224.3c0,1.2-0.3,2.5-0.9,3.8c-0.6,1.3-1.4,2.4-2.4,3.4c-1,1-1.8,1.4-2.5,1.4
			c-0.4,0-0.7-0.1-0.9-0.3s-0.4-0.5-0.4-0.8s0.1-0.6,0.3-0.8c0.2-0.2,0.5-0.3,0.8-0.3c0.3,0,0.6,0.2,0.9,0.5
			c0.2,0.2,0.3,0.3,0.4,0.3c0.3,0,0.6-0.4,1-1.1c0.4-0.7,0.7-1.6,1-2.6s0.4-2,0.4-3c0-0.4-0.1-0.7-0.2-1c-0.2-0.2-0.4-0.4-0.6-0.4
			c-0.5,0-1.2,0.4-2,1.3c-0.8,0.8-1.6,1.9-2.3,3.2c-0.7,1.3-1.3,2.7-1.7,4.3c0,0.1-0.2,0.2-0.4,0.3s-0.5,0.1-0.7,0.1
			c-0.2,0-0.4,0-0.6-0.1c-0.2-0.1-0.3-0.1-0.3-0.2l0-0.1l4.2-13.3c0.1-0.4,0.2-0.8,0.2-1.1c0-0.3-0.3-0.5-1-0.6
			c-0.1,0-0.2-0.1-0.2-0.3c0-0.2,0.1-0.3,0.2-0.3c0.5-0.1,1.1-0.3,1.8-0.5c0.7-0.3,1.2-0.5,1.6-0.7c0.2-0.1,0.3-0.2,0.4-0.2
			c0.2,0,0.2,0.1,0.2,0.3c0,0.2,0,0.4-0.1,0.6l-3,9.7c1.6-2.5,3.3-3.8,5-3.8c0.5,0,0.9,0.2,1.3,0.7S270.6,223.6,270.6,224.3z"/>
		<path fill="#FFFFFF" d="M279.3,223.7c0,1.1-0.5,2.1-1.6,2.9c-1.1,0.9-2.3,1.3-3.7,1.3c0,0.5-0.1,0.9-0.1,1.3
			c0,0.7,0.1,1.2,0.3,1.5c0.2,0.3,0.5,0.4,1,0.4c1,0,1.9-0.6,2.7-1.7l0.1,0c0.1,0,0.1,0,0.2,0.1c0.1,0.1,0.1,0.2,0.1,0.2
			c0,0.2-0.2,0.6-0.7,1.2c-0.5,0.6-1,1.1-1.5,1.4c-0.5,0.3-1,0.5-1.6,0.5c-0.8,0-1.4-0.3-1.9-0.9c-0.5-0.6-0.7-1.3-0.7-2.1
			c0-1.1,0.3-2.3,0.9-3.6s1.4-2.3,2.3-3.1c0.9-0.8,1.8-1.3,2.6-1.3c0.6,0,1,0.2,1.3,0.5C279.1,222.8,279.3,223.2,279.3,223.7z
			 M277.6,224.1c0-0.7-0.3-1-0.9-1c-0.6,0-1.1,0.4-1.6,1.2c-0.5,0.8-0.8,1.7-1.1,2.9c0.7,0,1.3-0.1,1.8-0.4c0.5-0.3,0.9-0.7,1.3-1.2
			C277.5,225,277.6,224.6,277.6,224.1z"/>
		<path fill="#FFFFFF" d="M289.6,223.3c0,0.4-0.1,0.7-0.3,0.9s-0.5,0.4-0.8,0.4c-0.3,0-0.6-0.1-0.8-0.4c-0.2-0.2-0.4-0.4-0.6-0.4
			c-0.5,0-1.2,0.8-2.2,2.4c-1,1.6-2,3.6-3,6c-0.1,0.3-0.5,0.4-1.1,0.4c-0.2,0-0.4,0-0.6-0.1c-0.2-0.1-0.3-0.1-0.3-0.2l0-0.1l2.5-7.3
			c0.2-0.6,0.3-1,0.3-1.2c0-0.2-0.1-0.3-0.2-0.3c-0.3,0-0.7,0.4-1.3,1.3c-0.3,0.4-0.5,0.6-0.6,0.6c-0.1,0-0.2,0-0.3-0.1
			c-0.1-0.1-0.1-0.2-0.1-0.3c0-0.1,0.3-0.5,0.8-1.1c0.5-0.6,1-1.1,1.5-1.4s0.9-0.5,1.3-0.5c0.8,0,1.2,0.4,1.2,1.1
			c0,0.4-0.1,1-0.4,1.7l-0.4,1.3c1.5-2.7,2.8-4,3.9-4c0.4,0,0.8,0.1,1.1,0.4C289.4,222.6,289.6,222.9,289.6,223.3z"/>
	</g>
    
    
    
</svg>
